<?xml version="1.0" encoding="UTF-8" standalone="no"?>
<!DOCTYPE svg PUBLIC "-//W3C//DTD SVG 1.1//EN" "http://www.w3.org/Graphics/SVG/1.1/DTD/svg11.dtd">
<svg width="100%" height="100%" viewBox="0 0 2214 1660" version="1.1" xmlns="http://www.w3.org/2000/svg" xmlns:xlink="http://www.w3.org/1999/xlink" xml:space="preserve" xmlns:serif="http://www.serif.com/" style="fill-rule:evenodd;clip-rule:evenodd;stroke-linejoin:round;stroke-miterlimit:2;">
    <g transform="matrix(1,0,0,1,-63.3155,-218.405)">
        <g transform="matrix(6.82179,0,0,8.16008,-955.121,-143.337)">
            <path d="M408.554,59.725C389.148,63.86 373.69,41.61 339.21,44.61C303.83,47.7 265.91,56.54 242.84,67.61C235.79,71 226.94,76.05 227.38,85C227.75,92.43 235.13,92 237.07,97.26C227.89,97.64 216.7,101.97 208.07,105.03C195.88,109.35 184.99,114.18 174.91,122.68C160.85,134.52 156.22,150.55 159.58,168.56C160.424,173.925 162.424,179.044 165.44,183.56C167.89,187.15 173.16,191.21 174.71,195.13C177.47,202.13 168.22,205.43 163.76,209.13C156.58,215.13 147.19,221.87 149.71,232.38C151.77,240.95 160.21,245.52 168.17,247.32C168.52,247.4 168.92,247.51 169.34,247.64L439.244,246.108C448.55,244.017 484.187,229.701 470.902,208.814C463.825,197.689 454.81,195.013 454.79,187.944C454.766,178.988 480.151,185.609 470.168,129.202C466.931,110.91 441.991,52.602 408.554,59.725Z" style="fill:rgb(255,233,192);fill-rule:nonzero;"/>
        </g>
        <g transform="matrix(12.1533,0,0,19.7014,-2980.42,-1763.19)">
            <path d="M386.53,180.79C386.53,183.01 366.38,184.79 341.53,184.79C316.68,184.79 296.53,182.98 296.53,180.79C296.53,178.6 316.69,176.79 341.53,176.79C366.37,176.79 386.53,178.57 386.53,180.79Z" style="fill:rgb(254,165,0);fill-rule:nonzero;"/>
        </g>
        <g transform="matrix(12.4355,0,0,12.4355,-3005.14,-439.662)">
            <path d="M363.17,178.69L318.42,178.69L326.23,163.23L357.25,163.23L363.17,178.69Z" style="fill:rgb(176,176,176);fill-rule:nonzero;"/>
            <path d="M317,177.58L365.18,177.58C366.376,177.58 367.36,178.564 367.36,179.76L367.36,181.32L314.77,181.32L314.77,179.749C314.77,178.559 315.75,177.579 316.94,177.579C316.96,177.579 316.98,177.579 317,177.58Z" style="fill:rgb(21,47,67);fill-rule:nonzero;"/>
            <path d="M406.87,73.81L406.87,162.26C406.87,164.515 405.015,166.37 402.76,166.37L281.74,166.37C279.482,166.37 277.621,164.518 277.61,162.26L277.61,73.81C277.615,71.541 279.481,69.675 281.75,69.67L402.75,69.67C405.014,69.681 406.87,71.546 406.87,73.81Z" style="fill:rgb(176,176,176);fill-rule:nonzero;stroke:rgb(164,164,164);stroke-width:0.3px;"/>
            <path d="M406.87,73.81L406.87,147.81L277.6,147.81L277.6,73.81C277.605,71.541 279.471,69.675 281.74,69.67L402.74,69.67C405.007,69.675 406.87,71.543 406.87,73.81Z" style="fill:rgb(21,47,67);fill-rule:nonzero;"/>
            <g transform="matrix(-3.82857e-16,1,-1,-3.82857e-16,451.04,-233.5)">
                <rect x="309.08" y="49.44" width="66.32" height="118.72" style="fill:rgb(241,249,255);"/>
            </g>
            <circle cx="341.25" cy="156.92" r="2.85" style="fill:rgb(21,47,67);"/>
            <rect x="293.61" y="81.11" width="31.96" height="1.81" style="fill:rgb(69,122,163);"/>
            <rect x="293.61" y="84.6" width="19.51" height="1.7" style="fill:rgb(69,122,163);"/>
            <rect x="320.99" y="84.6" width="61.39" height="1.7" style="fill:rgb(69,122,163);"/>
            <rect x="303.76" y="88.1" width="26.83" height="1.79" style="fill:rgb(69,122,163);"/>
            <rect x="312.37" y="91.59" width="31.96" height="1.81" style="fill:rgb(69,122,163);"/>
            <rect x="346.42" y="91.59" width="26.79" height="2" style="fill:rgb(69,122,163);"/>
            <rect x="312.32" y="95.08" width="24.69" height="1.7" style="fill:rgb(69,122,163);"/>
            <rect x="339.37" y="95.08" width="50.93" height="1.88" style="fill:rgb(69,122,163);"/>
            <rect x="293.61" y="99.8" width="31.96" height="1.81" style="fill:rgb(69,122,163);"/>
            <rect x="293.61" y="103.29" width="19.51" height="1.7" style="fill:rgb(69,122,163);"/>
            <rect x="320.99" y="103.29" width="61.39" height="1.7" style="fill:rgb(69,122,163);"/>
            <rect x="303.76" y="106.78" width="26.83" height="1.79" style="fill:rgb(69,122,163);"/>
            <rect x="312.37" y="110.29" width="31.96" height="1.81" style="fill:rgb(69,122,163);"/>
            <rect x="346.42" y="110.29" width="26.79" height="2" style="fill:rgb(69,122,163);"/>
            <rect x="312.32" y="113.78" width="24.69" height="1.7" style="fill:rgb(69,122,163);"/>
            <rect x="339.37" y="113.78" width="50.93" height="1.88" style="fill:rgb(69,122,163);"/>
            <rect x="293.61" y="118.5" width="31.96" height="1.81" style="fill:rgb(69,122,163);"/>
            <rect x="293.61" y="121.99" width="19.51" height="1.7" style="fill:rgb(69,122,163);"/>
            <rect x="320.99" y="121.99" width="61.39" height="1.7" style="fill:rgb(69,122,163);"/>
            <rect x="303.76" y="125.48" width="26.83" height="1.79" style="fill:rgb(69,122,163);"/>
            <rect x="312.37" y="128.97" width="31.96" height="1.81" style="fill:rgb(69,122,163);"/>
            <rect x="346.42" y="128.97" width="26.79" height="2" style="fill:rgb(69,122,163);"/>
            <rect x="312.32" y="132.47" width="24.69" height="1.7" style="fill:rgb(69,122,163);"/>
            <rect x="339.37" y="132.47" width="50.93" height="1.88" style="fill:rgb(69,122,163);"/>
        </g>
        <g transform="matrix(9.6085,-6.40719,6.40719,9.6085,-3238.93,2447.93)">
            <path d="M357,97.17C353.193,98.783 350.29,100.05 348.29,100.97C347.62,101.29 347.08,101.53 346.67,101.7C346.152,101.9 345.616,102.051 345.07,102.15C344.485,102.263 343.885,102.263 343.3,102.15C342.719,102.022 342.168,101.781 341.68,101.44C341.213,101.148 340.775,100.813 340.37,100.44C340.06,100.13 339.65,99.7 339.15,99.16C337.957,97.867 335.753,95.593 332.54,92.34C332.043,91.849 331.61,91.298 331.25,90.7L328.85,102.92C328.819,103.079 328.803,103.24 328.803,103.401C328.803,104.603 329.669,105.642 330.85,105.86L353.5,110.32C353.657,110.35 353.816,110.365 353.975,110.365C355.179,110.365 356.223,109.502 356.45,108.32L358.85,96.1C358.291,96.502 357.687,96.838 357.05,97.1L357,97.17Z" style="fill:rgb(72,128,74);fill-rule:nonzero;"/>
            <path d="M357,97.17C353.193,98.783 350.29,100.05 348.29,100.97C347.62,101.29 347.08,101.53 346.67,101.7C346.152,101.9 345.616,102.051 345.07,102.15C344.485,102.263 343.885,102.263 343.3,102.15C342.719,102.022 342.168,101.781 341.68,101.44C341.213,101.148 340.775,100.813 340.37,100.44C340.06,100.13 339.65,99.7 339.15,99.16C337.957,97.867 335.753,95.593 332.54,92.34C332.043,91.849 331.61,91.298 331.25,90.7L328.85,102.92C328.819,103.079 328.803,103.24 328.803,103.401C328.803,104.603 329.669,105.642 330.85,105.86L353.5,110.32C353.657,110.35 353.816,110.365 353.975,110.365C355.179,110.365 356.223,109.502 356.45,108.32L358.85,96.1C358.291,96.502 357.687,96.838 357.05,97.1L357,97.17Z" style="fill:rgb(72,128,74);fill-rule:nonzero;"/>
            <path d="M332.16,93.93C335.38,97.19 337.583,99.463 338.77,100.75C339.27,101.29 339.68,101.75 339.99,102.03C340.395,102.403 340.833,102.738 341.3,103.03C341.788,103.371 342.339,103.612 342.92,103.74C343.505,103.853 344.105,103.853 344.69,103.74C345.236,103.641 345.772,103.49 346.29,103.29C346.7,103.12 347.24,102.88 347.91,102.56C349.91,101.64 352.813,100.373 356.62,98.76C357.226,98.492 357.799,98.156 358.33,97.76C358.427,97.525 358.501,97.28 358.55,97.03C358.695,96.374 358.553,95.685 358.16,95.14C357.797,94.585 357.222,94.201 356.57,94.08L334,89.64C333.3,89.462 332.556,89.629 332,90.09C331.459,90.577 331.105,91.239 331,91.96C330.985,92.083 330.985,92.207 331,92.33C331.321,92.908 331.711,93.445 332.16,93.93Z" style="fill:rgb(3,70,6);fill-opacity:0.15;fill-rule:nonzero;"/>
            <path d="M332.47,92.38C335.69,95.64 337.89,97.913 339.07,99.2C339.57,99.74 339.98,100.17 340.3,100.49C340.704,100.865 341.142,101.2 341.61,101.49C342.096,101.834 342.647,102.076 343.23,102.2C343.811,102.319 344.409,102.319 344.99,102.2C345.537,102.102 346.072,101.951 346.59,101.75C347.01,101.58 347.59,101.34 348.22,101.02C350.22,100.1 353.12,98.833 356.92,97.22C357.53,96.954 358.107,96.618 358.64,96.22C358.733,95.983 358.807,95.739 358.86,95.49C358.894,95.323 358.911,95.153 358.911,94.983C358.911,93.773 358.047,92.723 356.86,92.49L334.25,88.1C333.552,87.912 332.805,88.077 332.25,88.54C331.712,89.03 331.359,89.691 331.25,90.41L331.25,90.78C331.591,91.361 332,91.898 332.47,92.38Z" style="fill:rgb(76,175,80);fill-rule:nonzero;"/>
        </g>
        <g transform="matrix(12.4355,0,0,12.4355,-3715.99,-4.75713)">
            <path d="M352.62,40.11C348.62,40.38 345.62,40.63 343.51,40.84C342.8,40.92 342.24,40.97 341.81,40.99C341.275,41.014 340.74,40.987 340.21,40.91C339.641,40.843 339.091,40.667 338.59,40.39C338.096,40.093 337.667,39.698 337.33,39.23C337.004,38.81 336.716,38.362 336.47,37.89C336.28,37.51 336.04,36.99 335.75,36.34C335.083,34.8 333.793,32.043 331.88,28.07C331.583,27.466 331.362,26.828 331.22,26.17L325.22,36.53C324.894,37.082 324.807,37.743 324.98,38.36C325.13,38.985 325.537,39.519 326.1,39.83L345.27,51C345.822,51.326 346.483,51.413 347.1,51.24C347.725,51.09 348.259,50.683 348.57,50.12L354.57,39.76C353.922,39.969 353.25,40.097 352.57,40.14L352.62,40.11Z" style="fill:rgb(72,128,74);fill-rule:nonzero;"/>
            <path d="M331.08,29.4C332.993,33.4 334.287,36.157 334.96,37.67C335.24,38.32 335.48,38.84 335.67,39.22C335.916,39.694 336.207,40.143 336.54,40.56C336.873,41.028 337.299,41.422 337.79,41.72C338.292,41.995 338.842,42.172 339.41,42.24C339.94,42.317 340.475,42.344 341.01,42.32C341.44,42.32 342.01,42.25 342.71,42.17C344.81,41.96 347.85,41.71 351.82,41.44C352.451,41.394 353.075,41.276 353.68,41.09C353.843,40.909 353.987,40.711 354.11,40.5C354.441,39.947 354.528,39.28 354.35,38.66C354.19,38.045 353.79,37.519 353.24,37.2L334.05,26.07C333.477,25.687 332.754,25.605 332.11,25.85C331.457,26.117 330.919,26.606 330.59,27.23C330.53,27.332 330.48,27.439 330.44,27.55C330.577,28.191 330.792,28.812 331.08,29.4Z" style="fill:rgb(51,51,51);fill-opacity:0.15;fill-rule:nonzero;"/>
            <path d="M331.85,28.09C333.75,32.09 335.04,34.847 335.72,36.36C336,37.01 336.24,37.53 336.43,37.91C336.678,38.382 336.97,38.831 337.3,39.25C337.636,39.713 338.061,40.104 338.55,40.4C339.049,40.679 339.601,40.853 340.17,40.91C340.696,40.994 341.228,41.025 341.76,41C342.193,41 342.763,40.95 343.47,40.85C345.56,40.64 348.6,40.39 352.57,40.12C353.204,40.073 353.832,39.955 354.44,39.77C354.598,39.586 354.738,39.389 354.86,39.18C355.196,38.628 355.283,37.959 355.1,37.34C354.943,36.731 354.546,36.212 354,35.9L334.81,24.75C334.236,24.372 333.514,24.29 332.87,24.53C332.219,24.805 331.682,25.296 331.35,25.92C331.29,26.018 331.24,26.122 331.2,26.23C331.334,26.876 331.552,27.501 331.85,28.09Z" style="fill:rgb(76,175,80);fill-rule:nonzero;"/>
        </g>
        <g transform="matrix(12.4355,0,0,12.4355,-1980.73,-126.596)">
            <path d="M320.05,49.86C315.91,51.493 312.753,52.773 310.58,53.7C309.85,54.03 309.26,54.27 308.82,54.44C308.255,54.641 307.673,54.789 307.08,54.88C306.453,55.01 305.807,55.01 305.18,54.88C304.559,54.732 303.974,54.46 303.46,54.08C302.967,53.741 302.506,53.36 302.08,52.94C301.75,52.59 301.32,52.12 300.8,51.52C299.56,50.1 297.253,47.593 293.88,44C293.357,43.461 292.906,42.856 292.54,42.2L289.61,55.28C289.295,56.725 290.218,58.174 291.66,58.5L315.9,63.92C316.586,64.082 317.309,63.955 317.9,63.57C318.509,63.191 318.938,62.581 319.09,61.88L322,48.79C321.38,49.227 320.708,49.586 320,49.86L320.05,49.86Z" style="fill:rgb(72,128,74);fill-rule:nonzero;"/>
            <path d="M293.47,45.69C296.837,49.283 299.143,51.787 300.39,53.2C300.91,53.8 301.34,54.27 301.67,54.62C302.096,55.04 302.557,55.421 303.05,55.76C303.566,56.138 304.15,56.412 304.77,56.57C305.4,56.7 306.05,56.7 306.68,56.57C307.269,56.477 307.848,56.33 308.41,56.13C308.86,55.96 309.41,55.72 310.17,55.39C312.343,54.463 315.503,53.183 319.65,51.55C320.306,51.289 320.931,50.954 321.51,50.55C321.622,50.299 321.709,50.038 321.77,49.77C322.088,48.34 321.192,46.899 319.77,46.55L295.53,41.12C294.788,40.909 293.988,41.065 293.38,41.54C292.774,42.053 292.364,42.76 292.22,43.54C292.21,43.67 292.21,43.8 292.22,43.93C292.566,44.564 292.986,45.154 293.47,45.69Z" style="fill:rgb(51,51,51);fill-opacity:0.15;fill-rule:nonzero;"/>
            <path d="M293.84,44C297.22,47.587 299.527,50.09 300.76,51.51C301.28,52.11 301.71,52.59 302.04,52.93C302.46,53.356 302.923,53.737 303.42,54.07C303.936,54.448 304.52,54.722 305.14,54.88C305.771,55 306.419,55 307.05,54.88C307.64,54.785 308.219,54.634 308.78,54.43C309.23,54.26 309.78,54.02 310.54,53.7C312.713,52.76 315.873,51.477 320.02,49.85C320.676,49.589 321.301,49.254 321.88,48.85C321.99,48.602 322.077,48.344 322.14,48.08C322.299,47.392 322.168,46.669 321.78,46.08C321.404,45.473 320.798,45.043 320.1,44.89L295.86,39.47C295.118,39.259 294.318,39.415 293.71,39.89C293.102,40.401 292.692,41.109 292.55,41.89C292.523,42.022 292.506,42.156 292.5,42.29C292.877,42.911 293.327,43.485 293.84,44Z" style="fill:rgb(76,175,80);fill-rule:nonzero;"/>
        </g>
    </g>
</svg>
