<?xml version="1.0" encoding="UTF-8" standalone="no"?>
<!DOCTYPE svg PUBLIC "-//W3C//DTD SVG 1.1//EN" "http://www.w3.org/Graphics/SVG/1.1/DTD/svg11.dtd">
<svg width="100%" height="100%" viewBox="0 0 1067 882" version="1.1" xmlns="http://www.w3.org/2000/svg" xmlns:xlink="http://www.w3.org/1999/xlink" xml:space="preserve" xmlns:serif="http://www.serif.com/" style="fill-rule:evenodd;clip-rule:evenodd;stroke-linejoin:round;stroke-miterlimit:2;">
    <g transform="matrix(1,0,0,1,-8891.37,-5071.95)">
        <g transform="matrix(33.9533,0,0,33.9533,-5068.94,-828.273)">
            <g transform="matrix(0.831989,-0.554791,0.554791,0.831989,85.7063,295.001)">
                <path d="M357,97.17C353.193,98.783 350.29,100.05 348.29,100.97C347.62,101.29 347.08,101.53 346.67,101.7C346.152,101.9 345.616,102.051 345.07,102.15C344.485,102.263 343.885,102.263 343.3,102.15C342.719,102.022 342.168,101.781 341.68,101.44C341.213,101.148 340.775,100.813 340.37,100.44C340.06,100.13 339.65,99.7 339.15,99.16C337.957,97.867 335.753,95.593 332.54,92.34C332.043,91.849 331.61,91.298 331.25,90.7L328.85,102.92C328.819,103.079 328.803,103.24 328.803,103.401C328.803,104.603 329.669,105.642 330.85,105.86L353.5,110.32C353.657,110.35 353.816,110.365 353.975,110.365C355.179,110.365 356.223,109.502 356.45,108.32L358.85,96.1C358.291,96.502 357.687,96.838 357.05,97.1L357,97.17Z" style="fill:rgb(72,128,74);fill-rule:nonzero;"/>
                <path d="M332.16,93.93C335.38,97.19 337.583,99.463 338.77,100.75C339.27,101.29 339.68,101.75 339.99,102.03C340.395,102.403 340.833,102.738 341.3,103.03C341.788,103.371 342.339,103.612 342.92,103.74C343.505,103.853 344.105,103.853 344.69,103.74C345.236,103.641 345.772,103.49 346.29,103.29C346.7,103.12 347.24,102.88 347.91,102.56C349.91,101.64 352.813,100.373 356.62,98.76C357.226,98.492 357.799,98.156 358.33,97.76C358.427,97.525 358.501,97.28 358.55,97.03C358.695,96.374 358.553,95.685 358.16,95.14C357.797,94.585 357.222,94.201 356.57,94.08L334,89.64C333.3,89.462 332.556,89.629 332,90.09C331.459,90.577 331.105,91.239 331,91.96C330.985,92.083 330.985,92.207 331,92.33C331.321,92.908 331.711,93.445 332.16,93.93Z" style="fill:rgb(3,70,6);fill-opacity:0.15;fill-rule:nonzero;"/>
                <path d="M332.47,92.38C335.69,95.64 337.89,97.913 339.07,99.2C339.57,99.74 339.98,100.17 340.3,100.49C340.704,100.865 341.142,101.2 341.61,101.49C342.096,101.834 342.647,102.076 343.23,102.2C343.811,102.319 344.409,102.319 344.99,102.2C345.537,102.102 346.072,101.951 346.59,101.75C347.01,101.58 347.59,101.34 348.22,101.02C350.22,100.1 353.12,98.833 356.92,97.22C357.53,96.954 358.107,96.618 358.64,96.22C358.733,95.983 358.807,95.739 358.86,95.49C358.894,95.323 358.911,95.153 358.911,94.983C358.911,93.773 358.047,92.723 356.86,92.49L334.25,88.1C333.552,87.912 332.805,88.077 332.25,88.54C331.712,89.03 331.359,89.691 331.25,90.41L331.25,90.78C331.591,91.361 332,91.898 332.47,92.38Z" style="fill:rgb(76,175,80);fill-rule:nonzero;"/>
            </g>
        </g>
    </g>
</svg>
