<?xml version="1.0" encoding="UTF-8" standalone="no"?>
<!DOCTYPE svg PUBLIC "-//W3C//DTD SVG 1.1//EN" "http://www.w3.org/Graphics/SVG/1.1/DTD/svg11.dtd">
<svg width="100%" height="100%" viewBox="0 0 1734 1661" version="1.1" xmlns="http://www.w3.org/2000/svg" xmlns:xlink="http://www.w3.org/1999/xlink" xml:space="preserve" xmlns:serif="http://www.serif.com/" style="fill-rule:evenodd;clip-rule:evenodd;stroke-linecap:round;stroke-linejoin:round;stroke-miterlimit:1.5;">
    <g transform="matrix(1,0,0,1,-1556.19,-1797.95)">
        <path d="M2928,2566L2855.17,2489" style="fill:none;stroke:rgb(250,250,250);stroke-width:22px;"/>
        <g transform="matrix(1,0,0,1,39,85.9546)">
            <g transform="matrix(0.602918,0,0,0.602918,1265.62,1409.85)">
                <path d="M3049.78,3138.65L610.776,3138.65C585.968,3138.65 565.672,3118.37 565.672,3093.59L556.448,2456.53L546.313,1756.64L545.377,1691.96C545.377,1676.47 556.792,1651.74 578.427,1636.28C590.153,1627.9 604.881,1622.24 622.421,1622.24C624.279,1622.24 626.167,1622.3 628.088,1622.43L2907.07,1563.46L3011.75,1560.75C3012.73,1560.73 3013.72,1560.72 3014.7,1560.72C3044.77,1560.72 3073.67,1572.62 3095.01,1593.9C3117.05,1615.87 3129.11,1645.9 3128.38,1677L3094.88,3093.59C3094.88,3118.37 3074.58,3138.65 3049.78,3138.65ZM1014.96,3093.03C1029.38,3099.82 2624.06,3099.82 2638.5,3093.03L3007.68,3093.03C3031.15,3093.03 3050.35,3073.83 3050.35,3050.36L3084.33,1695.93C3084.88,1674.07 3076.42,1652.93 3060.94,1637.48C3045.96,1622.53 3025.69,1614.16 3004.59,1614.16C3003.87,1614.16 3003.16,1614.17 3002.44,1614.19L717.852,1675.48C716.727,1675.44 715.585,1675.42 714.421,1675.42C673.499,1675.42 609.965,1703.5 607.771,1777.95L626.923,3050.36C626.923,3073.83 646.124,3093.03 669.593,3093.03L1014.96,3093.03Z" style="fill:rgb(250,250,250);"/>
            </g>
            <g transform="matrix(0.602918,0,0,0.602918,1265.62,1409.85)">
                <path d="M3231.17,3255L478.832,3255C444.965,3255 417.256,3227.29 417.256,3193.42C417.256,3159.56 444.965,3131.85 478.832,3131.85L3231.17,3131.85C3265.03,3131.85 3292.74,3159.56 3292.74,3193.42C3292.74,3227.29 3265.03,3255 3231.17,3255Z" style="fill:rgb(250,250,250);"/>
            </g>
            <g transform="matrix(0.602918,0,0,0.602918,1265.62,1385.87)">
                <clipPath id="_clip1">
                    <path d="M1034.45,1960.43C1254.62,2165.2 1514.82,2456.87 1709.27,2557.44C1734.47,2570.47 1764.73,2568.96 1788.4,2553.34C1978.1,2428.15 2388.03,2060.11 2761.71,1745.14L2761.71,935.96L985.884,935.96L1034.45,1960.43Z"/>
                </clipPath>
                <g clip-path="url(#_clip1)">
                    <path d="M1165.29,964.034C1427.71,983.29 2020.08,991.175 2546.67,1015.67C2571.4,1016.82 2594.42,1058.99 2595.05,1083.28L2613.79,1796.36L2615.93,1874.43L2648.13,3102.56C2648.85,3129.91 2626.95,3152.68 2599.08,3153.52C2371.14,3160.41 1432.49,3185.42 1099.15,3141.75C1078.86,3139.1 1063.88,3121.86 1064.32,3101.77L1110.01,1009.13C1110.63,980.706 1136.41,961.915 1165.29,964.034Z" style="fill:rgb(250,250,250);fill-rule:nonzero;"/>
                    <g transform="matrix(2.70457,0,0,1.68139,-1861.2,-2526.7)">
                        <path d="M1650.77,2200.31C1652,2143.82 1644.51,2102.63 1606.44,2101.65L1140.72,2076C1111.85,2076 1097,2099.43 1097,2128.3L1088.41,2968.71C1088.41,2997.58 1120.43,3022 1149.3,3022L1586.82,3021.01C1615.69,3021.01 1648.32,3000.54 1648.32,2971.67L1650.77,2200.31Z" style="fill:rgb(250,250,250);"/>
                    </g>
                    <path d="M1227.5,1052.89C1455.11,1063.26 2021.04,1072.19 2489.05,1089.29C2527.84,1090.71 2525.28,1163.59 2525.84,1186.39L2571.73,3058.82C2572.36,3084.5 2552.46,3105.88 2527.16,3106.7C2320.24,3113.35 1468.14,3137.64 1165.59,3096.94C1147.17,3094.46 1133.59,3078.29 1134.01,3059.44L1177.27,1095.27C1177.86,1068.59 1201.24,1051.7 1227.5,1052.89Z" style="fill:rgb(0,48,73);fill-rule:nonzero;"/>
                    <path d="M1767.56,1693.04C1767.56,1756.76 1793.14,1789.27 1844.06,1790.56C1870.57,1791.23 1890.68,1782.23 1904.45,1763.58C1918.19,1744.97 1926.52,1714.36 1929.44,1671.72L1935.12,1572.9C1920.24,1569.02 1903.42,1566.69 1884.67,1565.94C1847.89,1564.46 1819.16,1575.04 1798.56,1597.73C1777.9,1620.49 1767.56,1652.27 1767.56,1693.04ZM2212,1652.12C2212,1694.34 2205.53,1732.77 2192.59,1767.47C2179.62,1802.22 2161.26,1829.34 2137.46,1848.82C2113.59,1868.37 2085.78,1877.85 2054,1877.22C2032.73,1876.79 2013.86,1871.15 1997.4,1860.25C1980.9,1849.34 1969,1835.15 1961.75,1817.69L1954.78,1817.52C1923.31,1855.33 1883.05,1873.81 1833.87,1872.83C1781.4,1871.79 1739.79,1854.85 1709.22,1821.92C1678.53,1788.87 1663.13,1744.17 1663.13,1687.92C1663.13,1623.77 1683.34,1572.87 1723.62,1535.38C1763.68,1498.09 1815.68,1480.98 1879.38,1483.89C1904.6,1485.04 1932.28,1488.77 1962.4,1495.06C1992.41,1501.32 2017.03,1508.29 2036.33,1515.97L2026.4,1733.28C2026.4,1774.55 2037.33,1795.46 2059.16,1796.01C2077.48,1796.47 2092.06,1783.03 2102.9,1755.7C2113.73,1728.41 2119.13,1692.5 2119.13,1647.95C2119.13,1600.45 2109.6,1558.09 2090.49,1520.79C2071.33,1483.4 2044.3,1454.21 2009.31,1433.2C1974.16,1412.11 1933.81,1400.35 1888.19,1398.01C1828.7,1394.96 1776.64,1404.81 1732.16,1427.68C1687.41,1450.7 1652.93,1485.5 1628.84,1532.1C1604.68,1578.86 1592.57,1633.6 1592.57,1696.21C1592.57,1780.51 1615.02,1845.67 1659.73,1891.48C1704.19,1937.04 1768.15,1960.3 1851.14,1961.47C1882.32,1961.91 1916.44,1958.88 1953.47,1952.4C1990.31,1945.96 2026.4,1936.33 2061.74,1923.57L2061.74,2008.87C2000.14,2035.24 1931.19,2048.19 1854.67,2047.54C1741.88,2046.59 1652.77,2015.41 1588.22,1953.64C1523.12,1891.34 1490.37,1805.27 1490.37,1695.81C1490.37,1619.87 1507.1,1551.59 1540.49,1491.18C1573.72,1431.03 1620.79,1385.13 1681.46,1353.46C1741.65,1322.05 1810.35,1308.64 1887.31,1313.02C1951.57,1316.68 2008.51,1333.3 2058.3,1362.75C2107.75,1392.01 2145.68,1431.7 2172.28,1481.82C2198.78,1531.78 2212,1588.5 2212,1652.12Z" style="fill:rgb(254,165,0);fill-rule:nonzero;stroke:rgb(0,48,73);stroke-width:1.66px;stroke-linecap:butt;stroke-miterlimit:2;"/>
                </g>
            </g>
            <g transform="matrix(1,0,0,1,-39,-85.9546)">
                <path d="M1904,2632.13L1988.33,2554.64" style="fill:none;stroke:rgb(250,250,250);stroke-width:22px;"/>
            </g>
            <g transform="matrix(0.602918,0,0,0.602918,1259.74,1381.61)">
                <path d="M2590.99,3103.61L1062.48,3103.61C1045.49,3103.61 1029.38,3099.82 1014.96,3093.03C987.509,3080.11 966.174,3056.35 956.47,3027.27C952.759,3016.14 950.749,3004.24 950.749,2991.88L950.749,1996.58C948.937,1959.56 975.973,1931.08 999.153,1911.21C1414.96,2258.65 1578.11,2387.78 1796.41,2552.09C2234.82,2202.91 2271.01,2178.67 2709.23,1803.02C2745.43,1839.53 2763.51,1878.05 2761.54,1914.17L2702.56,2997.95C2702.14,3005.65 2700.95,3013.13 2699.06,3020.33C2690.58,3052.67 2668.04,3079.14 2638.5,3093.03C2624.06,3099.82 2607.95,3103.61 2590.99,3103.61Z" style="fill:rgb(250,250,250);stroke:rgb(250,250,250);stroke-width:1.66px;stroke-linecap:butt;stroke-miterlimit:2;"/>
            </g>
            <g transform="matrix(1,0,0,1,-39,-85.9546)">
                <path d="M2559.04,1910.18C2559.04,1933.06 2552.19,1954.34 2540.43,1972.09C2520.34,2002.41 2485.91,2022.41 2446.81,2022.41C2384.83,2022.41 2334.58,1972.16 2334.58,1910.18C2334.58,1848.2 2384.83,1797.95 2446.81,1797.95C2508.79,1797.95 2559.04,1848.2 2559.04,1910.18ZM2395.76,1887C2399.68,1875.82 2409.46,1867.8 2421.03,1867.66C2436.3,1867.48 2448.85,1881.08 2448.85,1898.04C2448.85,1881.08 2461.53,1867.17 2477.39,1866.98C2489.71,1866.84 2500.34,1874.99 2504.66,1886.66C2521.18,1928.79 2448.85,1965.76 2448.85,1965.76C2448.85,1965.76 2381.01,1926.61 2395.76,1887Z" style="fill:rgb(250,250,250);"/>
            </g>
            <g transform="matrix(1,0,0,1,-39,-85.9546)">
                <path d="M3008.68,1951.83C3008.68,2000.55 2969.18,2040.05 2920.46,2040.05C2871.74,2040.05 2832.24,2000.55 2832.24,1951.83C2832.24,1903.11 2871.74,1863.61 2920.46,1863.61C2969.18,1863.61 3008.68,1903.11 3008.68,1951.83ZM2890.22,1994.06L2948.57,1994.06C2954.72,1994.06 2960.15,1990.09 2962.03,1984.24L2965.17,1974.43C2967.47,1967.24 2963.73,1959.46 2956.64,1956.87C2932.89,1948.19 2908.34,1949.3 2883.18,1957.67C2876.14,1960.02 2872.23,1967.56 2874.17,1974.73L2876.59,1983.64C2878.26,1989.79 2883.84,1994.06 2890.22,1994.06ZM2943.79,1915.78C2943.79,1928.98 2933.09,1943.24 2919.88,1943.24C2906.69,1943.24 2895.98,1928.98 2895.98,1915.78C2895.98,1902.58 2906.69,1893.22 2919.88,1893.22C2933.09,1893.22 2943.79,1902.58 2943.79,1915.78Z" style="fill:rgb(250,250,250);"/>
            </g>
            <g transform="matrix(1,0,0,1,-39,-85.9546)">
                <path d="M1838.92,2259.64C1838.92,2315.48 1793.66,2360.73 1737.83,2360.73C1682,2360.73 1636.74,2315.48 1636.74,2259.64C1636.74,2203.81 1682,2158.55 1737.83,2158.55C1793.66,2158.55 1838.92,2203.81 1838.92,2259.64ZM1769.29,2222.87L1754.15,2222.87L1754.15,2204.86C1754.15,2199.05 1751.08,2195.22 1745.27,2195.22L1744.9,2195.22C1739.09,2195.22 1734.38,2199.49 1734.38,2205.3L1729.36,2223.23C1727.05,2223.23 1723.42,2224.89 1723.42,2227.2L1723.42,2295.92C1723.42,2298.24 1728.8,2301.23 1731.12,2301.23L1769.29,2301.23C1777.98,2301.23 1784.87,2293.07 1784.87,2284.38L1784.87,2238.75C1784.87,2230.06 1777.98,2222.87 1769.29,2222.87ZM1717.27,2227.06C1717.27,2224.75 1715.4,2222.87 1713.08,2222.87L1698.42,2222.87C1696.1,2222.87 1694.23,2224.75 1694.23,2227.06L1694.23,2293.97C1694.23,2296.28 1696.1,2298.16 1698.42,2298.16L1713.08,2298.16C1715.4,2298.16 1717.27,2296.28 1717.27,2293.97L1717.27,2227.06Z" style="fill:rgb(250,250,250);"/>
            </g>
            <g transform="matrix(1,0,0,1,-39,-85.9546)">
                <path d="M2071.13,1915.59C2071.13,1961.27 2034.1,1998.3 1988.42,1998.3C1942.74,1998.3 1905.72,1961.27 1905.72,1915.59C1905.72,1869.92 1942.74,1832.89 1988.42,1832.89C2034.1,1832.89 2071.13,1869.92 2071.13,1915.59ZM1960.78,1882.11L1960.78,1949.36C1960.78,1953.68 1964.43,1956.37 1967.59,1954.39L2023.91,1919.04C2027.42,1916.83 2027.42,1910.59 2023.91,1908.6L1967.59,1876.67C1964.43,1874.88 1960.78,1877.8 1960.78,1882.11Z" style="fill:rgb(250,250,250);"/>
            </g>
            <g transform="matrix(0.602918,0,0,0.602918,1265.62,1409.85)">
                <path d="M3084.91,1282.79C3084.91,1392.24 2996.18,1480.98 2886.72,1480.98C2777.26,1480.98 2688.53,1392.24 2688.53,1282.79C2688.53,1173.33 2777.26,1084.59 2886.72,1084.59C2996.18,1084.59 3084.91,1173.33 3084.91,1282.79Z" style="fill:none;fill-rule:nonzero;"/>
            </g>
            <g transform="matrix(1,0,0,1,-39,-85.9546)">
                <path d="M3145.36,2271.74C3145.36,2325.74 3101.59,2369.51 3047.59,2369.51C2993.59,2369.51 2949.82,2325.74 2949.82,2271.74C2949.82,2217.74 2993.59,2173.96 3047.59,2173.96C3101.59,2173.96 3145.36,2217.74 3145.36,2271.74ZM3007.99,2249.5C3007.99,2264.99 3026.02,2301.81 3038.75,2325.89C3044.05,2335.93 3058.03,2336.6 3063.35,2327.06C3076.19,2304.05 3094.48,2268.51 3094.48,2252.88C3094.48,2228.76 3074.98,2208.54 3051.04,2207.72C3027.22,2206.9 3007.99,2225.61 3007.99,2249.5ZM3027.87,2250.28C3027.87,2237.42 3038.23,2227.38 3051.04,2227.85C3063.88,2228.32 3074.31,2239.18 3074.31,2252.1C3074.31,2265.02 3063.88,2275.05 3051.04,2274.52C3038.23,2273.99 3027.87,2263.14 3027.87,2250.28Z" style="fill:rgb(250,250,250);"/>
            </g>
            <g transform="matrix(0.687701,0,0,0.687701,1076.88,1144.74)">
                <path d="M2014.09,2442.03C2007.23,2439.03 2003.59,2431.28 2005.9,2423.98C2008.36,2416.17 2016.7,2411.84 2024.51,2414.3C2040.51,2419.35 2056.5,2425.15 2072.04,2431.57C2072.14,2431.6 2072.24,2431.64 2072.33,2431.69C2079.71,2434.91 2083.18,2443.45 2080.1,2450.93C2076.98,2458.5 2068.31,2462.11 2060.73,2458.99C2045.97,2452.9 2030.78,2447.39 2015.58,2442.59C2015.07,2442.43 2014.57,2442.24 2014.09,2442.03ZM2173.79,2521.03C2172.89,2520.63 2172.02,2520.15 2171.18,2519.57C2158.14,2510.39 2144.52,2501.67 2130.72,2493.62C2123.64,2489.49 2121.25,2480.41 2125.38,2473.33C2129.5,2466.26 2138.6,2463.83 2145.66,2467.99C2160.19,2476.46 2174.51,2485.64 2188.24,2495.29C2194.94,2500 2196.56,2509.26 2191.85,2515.96C2187.72,2521.83 2180.12,2523.79 2173.79,2521.03ZM1887.32,2417.28C1881.68,2414.82 1877.96,2408.98 1878.48,2402.5C1879.13,2394.33 1886.28,2388.25 1894.45,2388.9C1911.19,2390.24 1928.07,2392.32 1944.63,2395.09C1952.7,2396.48 1958.17,2404.09 1956.81,2412.17C1955.46,2420.25 1947.81,2425.71 1939.73,2424.36C1924,2421.72 1907.97,2419.74 1892.08,2418.47C1890.39,2418.33 1888.79,2417.92 1887.32,2417.28ZM2270.46,2606.77C2268.58,2605.94 2266.84,2604.72 2265.38,2603.09C2254.72,2591.24 2243.41,2579.69 2231.75,2568.78C2225.77,2563.18 2225.45,2553.79 2231.05,2547.82C2236.65,2541.83 2246.03,2541.52 2252.02,2547.12C2264.3,2558.62 2276.22,2570.77 2287.44,2583.25C2292.92,2589.35 2292.42,2598.73 2286.33,2604.2C2281.86,2608.22 2275.63,2609.02 2270.46,2606.77ZM1758.26,2421.47C1753.71,2419.48 1750.27,2415.27 1749.5,2410C1748.33,2401.89 1753.94,2394.37 1762.05,2393.19C1778.66,2390.77 1795.59,2389.04 1812.35,2388.05C1820.54,2387.56 1827.56,2393.8 1828.04,2401.98C1828.53,2410.15 1822.29,2417.18 1814.11,2417.66C1798.18,2418.61 1782.1,2420.25 1766.32,2422.55C1763.47,2422.96 1760.71,2422.54 1758.26,2421.47ZM1633.24,2454.17C1629.74,2452.64 1626.82,2449.76 1625.34,2445.91C1622.4,2438.26 1626.21,2429.68 1633.86,2426.74C1649.5,2420.72 1665.63,2415.28 1681.78,2410.59C1689.64,2408.3 1697.88,2412.82 1700.16,2420.69C1702.45,2428.56 1697.92,2436.79 1690.06,2439.08C1674.7,2443.54 1659.38,2448.7 1644.51,2454.42C1640.72,2455.88 1636.69,2455.68 1633.24,2454.17ZM1518.54,2513.74C1516.04,2512.64 1513.82,2510.85 1512.18,2508.41C1507.62,2501.61 1509.43,2492.4 1516.23,2487.83C1530.19,2478.47 1544.71,2469.6 1559.41,2461.46C1566.57,2457.5 1575.6,2460.09 1579.57,2467.26C1583.54,2474.42 1580.94,2483.45 1573.77,2487.42C1559.82,2495.14 1546.02,2503.57 1532.76,2512.47C1528.39,2515.4 1523.03,2515.7 1518.54,2513.74ZM1420.02,2597.37C1418.51,2596.71 1417.08,2595.78 1415.8,2594.59C1409.84,2588.98 1409.54,2579.59 1415.15,2573.62C1426.65,2561.38 1438.82,2549.49 1451.33,2538.28C1457.44,2532.81 1466.81,2533.34 1472.28,2539.43C1477.75,2545.53 1477.23,2554.91 1471.13,2560.37C1459.25,2571.02 1447.69,2582.31 1436.77,2593.93C1432.36,2598.63 1425.6,2599.81 1420.02,2597.37ZM1342.72,2700.88C1342.19,2700.64 1341.66,2700.38 1341.15,2700.08C1334.08,2695.94 1331.7,2686.85 1335.84,2679.78C1344.35,2665.26 1353.56,2650.96 1363.21,2637.28C1367.94,2630.59 1377.15,2628.99 1383.89,2633.71C1390.58,2638.44 1392.17,2647.7 1387.45,2654.38C1378.27,2667.39 1369.52,2680.97 1361.44,2694.78C1357.6,2701.33 1349.51,2703.85 1342.72,2700.88ZM1290.1,2818.9C1283.23,2815.9 1279.59,2808.13 1281.91,2800.83C1286.99,2784.86 1292.83,2768.87 1299.28,2753.32C1302.42,2745.75 1311.09,2742.15 1318.66,2745.29C1318.75,2745.33 1318.84,2745.37 1318.93,2745.41C1326.31,2748.63 1329.79,2757.19 1326.69,2764.67C1320.56,2779.45 1315.01,2794.64 1310.19,2809.81C1307.71,2817.62 1299.37,2821.94 1291.56,2819.45C1291.06,2819.3 1290.57,2819.11 1290.1,2818.9Z" style="fill:rgb(254,165,0);stroke:rgb(254,166,0);stroke-width:1.45px;stroke-linecap:butt;stroke-miterlimit:2;"/>
            </g>
            <g transform="matrix(0.687701,0,0,0.687701,1076.88,1144.74)">
                <path d="M2332.8,2690.21C2330.13,2689.04 2327.77,2687.07 2326.12,2684.39C2322.12,2677.87 2317.91,2671.33 2313.62,2664.95C2309.05,2658.15 2310.85,2648.93 2317.65,2644.36C2324.45,2639.79 2333.68,2641.59 2338.24,2648.4C2342.75,2655.12 2347.18,2662 2351.39,2668.85C2355.68,2675.83 2353.5,2684.97 2346.53,2689.25C2342.22,2691.9 2337.1,2692.09 2332.8,2690.21Z" style="fill:rgb(254,165,0);stroke:rgb(254,166,0);stroke-width:1.45px;stroke-linecap:butt;stroke-miterlimit:2;"/>
            </g>
            <g transform="matrix(0.687701,0,0,0.687701,1076.88,1144.74)">
                <clipPath id="_clip2">
                    <path d="M2497.44,3101.65L1176.43,3101.65L1176.43,2138.5L2497.44,2138.5L2497.44,3101.65Z"/>
                </clipPath>
                <g clip-path="url(#_clip2)">
                    <path d="M2224.81,3101.65L2066.67,3101.65C2067.46,3100.3 2068.25,3098.94 2069.02,3097.58C2073.26,3090.04 2077.09,3082.35 2080.5,3074.54C2103.48,3021.94 2107.64,2963.53 2091.98,2907.5C2074,2843.15 2032.04,2789.65 1973.82,2756.85C1935.12,2735.06 1893.04,2724.71 1851.49,2724.71C1764.04,2724.71 1678.99,2770.57 1633.1,2852.05C1628.93,2859.46 1625.14,2867.05 1621.76,2874.8C1607.11,2908.35 1599.96,2944.74 1600.95,2981.37C1601.03,2984.61 1603.68,2987.15 1606.9,2987.15L1607.04,2987.15C1609.42,2987.08 1611.43,2985.63 1612.32,2983.59C1612.66,2982.82 1612.84,2981.96 1612.81,2981.06C1611.87,2946.16 1618.68,2911.5 1632.64,2879.54C1635.86,2872.17 1639.46,2864.93 1643.44,2857.87C1687.15,2780.26 1768.12,2736.57 1851.43,2736.57C1891.01,2736.57 1931.11,2746.43 1968,2767.2C2023.45,2798.43 2063.43,2849.4 2080.55,2910.7C2095.47,2964.06 2091.51,3019.71 2069.62,3069.81C2066.37,3077.25 2062.72,3084.58 2058.67,3091.75C2056.78,3095.12 2054.81,3098.42 2052.78,3101.65L1422.86,3101.65L1407.42,3046.4C1406.63,3043.55 1407.73,3040.51 1410.16,3038.83L1479.59,2990.87C1477.92,2951.5 1482.51,2911.59 1493.83,2872.65L1437.86,2809.57C1435.9,2807.36 1435.56,2804.15 1437.01,2801.57L1486.68,2713.38C1487.92,2711.18 1490.25,2709.85 1492.72,2709.85C1493.13,2709.85 1493.55,2709.89 1493.97,2709.97L1576.92,2725.14C1604.35,2695.28 1636.1,2670.65 1670.64,2651.67L1675.67,2567.45C1675.84,2564.49 1677.87,2561.98 1680.72,2561.18L1778.2,2533.95C1778.82,2533.77 1779.44,2533.69 1780.06,2533.69C1782.3,2533.69 1784.45,2534.78 1785.77,2536.69L1833.72,2606.11C1838.95,2605.89 1844.17,2605.78 1849.41,2605.78C1883.66,2605.78 1918.18,2610.54 1951.95,2620.36L2015.03,2564.39C2016.33,2563.23 2017.97,2562.64 2019.63,2562.64C2020.8,2562.64 2021.97,2562.93 2023.03,2563.53L2111.22,2613.2C2113.79,2614.66 2115.17,2617.58 2114.63,2620.49L2099.46,2703.44C2129.33,2730.88 2153.95,2762.63 2172.93,2797.17L2257.16,2802.19C2260.11,2802.37 2262.62,2804.4 2263.42,2807.25L2290.65,2904.72C2291.45,2907.57 2290.35,2910.61 2287.92,2912.29L2218.49,2960.25C2220.16,2999.62 2215.56,3039.54 2204.24,3078.48L2224.81,3101.65ZM1849.07,2873.82C1804.31,2873.82 1763.18,2903.63 1750.87,2948.85C1737.47,2998.1 1762.79,3048.91 1808.23,3068.77C1812.74,3070.73 1817.45,3072.4 1822.33,3073.73C1831.24,3076.15 1840.19,3077.31 1849.01,3077.31C1893.77,3077.31 1934.9,3047.5 1947.21,3002.27C1954.34,2976.05 1950.84,2948.62 1937.34,2925.03C1923.85,2901.45 1901.98,2884.53 1875.75,2877.4C1866.84,2874.97 1857.89,2873.82 1849.07,2873.82ZM1849.02,3053.58C1842.26,3053.58 1835.39,3052.69 1828.56,3050.83C1787.04,3039.55 1762.48,2996.58 1773.77,2955.08C1783.21,2920.41 1814.74,2897.55 1849.06,2897.55C1855.82,2897.55 1862.69,2898.44 1869.52,2900.3C1873.28,2901.32 1876.92,2902.61 1880.43,2904.14C1895.67,2910.8 1908.33,2922.13 1916.74,2936.82C1927.09,2954.91 1929.77,2975.94 1924.3,2996.05C1914.87,3030.71 1883.34,3053.58 1849.02,3053.58Z" style="fill:rgb(250,250,250);stroke:rgb(254,166,0);stroke-width:40.72px;stroke-linecap:butt;stroke-miterlimit:2;"/>
                </g>
            </g>
            <g transform="matrix(0.659546,0,0,0.659546,1129.69,1228.96)">
                <path d="M1849.01,3077.31C1840.19,3077.31 1831.24,3076.15 1822.33,3073.73C1817.45,3072.4 1812.74,3070.73 1808.23,3068.77C1762.79,3048.91 1737.47,2998.1 1750.87,2948.85C1763.18,2903.63 1804.31,2873.82 1849.07,2873.82C1857.89,2873.82 1866.84,2874.97 1875.75,2877.4C1901.98,2884.53 1923.85,2901.45 1937.34,2925.03C1950.84,2948.62 1954.34,2976.05 1947.21,3002.27C1934.9,3047.5 1893.77,3077.31 1849.01,3077.31ZM1849.06,2897.55C1814.74,2897.55 1783.21,2920.41 1773.77,2955.08C1762.48,2996.58 1787.04,3039.55 1828.56,3050.83C1835.39,3052.69 1842.26,3053.58 1849.02,3053.58C1883.34,3053.58 1914.87,3030.71 1924.3,2996.05C1929.77,2975.94 1927.09,2954.91 1916.74,2936.82C1908.33,2922.13 1895.67,2910.8 1880.43,2904.14C1876.92,2902.61 1873.28,2901.32 1869.52,2900.3C1862.69,2898.44 1855.82,2897.55 1849.06,2897.55Z" style="fill:rgb(250,250,250);"/>
            </g>
            <g transform="matrix(0.687701,0,0,0.687701,1076.88,1143.59)">
                <path d="M2080.5,3074.54C2079.62,3076.53 2077.99,3080.92 2076.04,3084.43C2070.81,3084.38 2063.62,3084.35 2063.62,3084.35C2063.62,3084.35 2068.02,3073.47 2069.62,3069.81C2091.51,3019.71 2095.47,2964.06 2080.55,2910.7C2063.43,2849.4 2023.45,2798.43 1968,2767.2C1931.11,2746.43 1891.01,2736.57 1851.43,2736.57C1768.12,2736.57 1687.15,2780.26 1643.44,2857.87C1639.46,2864.93 1635.86,2872.17 1632.64,2879.54C1618.68,2911.5 1611.87,2946.16 1612.81,2981.06C1612.84,2981.96 1612.66,2982.82 1612.32,2983.59C1611.43,2985.63 1609.42,2987.08 1607.04,2987.15L1606.9,2987.15C1603.68,2987.15 1601.03,2984.61 1600.95,2981.37C1599.96,2944.74 1607.11,2908.35 1621.76,2874.8C1625.14,2867.05 1628.93,2859.46 1633.1,2852.05C1678.99,2770.57 1764.04,2724.71 1851.49,2724.71C1893.04,2724.71 1935.12,2735.06 1973.82,2756.85C2032.04,2789.65 2074,2843.15 2091.98,2907.5C2107.64,2963.53 2103.48,3021.94 2080.5,3074.54Z" style="fill:rgb(250,250,250);"/>
            </g>
        </g>
    </g>
</svg>
