<?xml version="1.0" encoding="UTF-8" standalone="no"?>
<!DOCTYPE svg PUBLIC "-//W3C//DTD SVG 1.1//EN" "http://www.w3.org/Graphics/SVG/1.1/DTD/svg11.dtd">
<svg width="100%" height="100%" viewBox="0 0 287 224" version="1.1" xmlns="http://www.w3.org/2000/svg" xmlns:xlink="http://www.w3.org/1999/xlink" xml:space="preserve" xmlns:serif="http://www.serif.com/" style="fill-rule:evenodd;clip-rule:evenodd;stroke-linejoin:round;stroke-miterlimit:2;">
    <g transform="matrix(1,0,0,1,-149.292,-24.3947)">
        <g id="Layer_2">
            <g id="Layer_4">
                <path d="M436.21,41.2C433.21,41.2 373.69,41.61 339.21,44.61C303.83,47.7 265.91,56.54 242.84,67.61C235.79,71 226.94,76.05 227.38,85C227.75,92.43 235.13,92 237.07,97.26C227.89,97.64 216.7,101.97 208.07,105.03C195.88,109.35 184.99,114.18 174.91,122.68C160.85,134.52 156.22,150.55 159.58,168.56C160.424,173.925 162.424,179.044 165.44,183.56C167.89,187.15 173.16,191.21 174.71,195.13C177.47,202.13 168.22,205.43 163.76,209.13C156.58,215.13 147.19,221.87 149.71,232.38C151.77,240.95 160.21,245.52 168.17,247.32C168.52,247.4 168.92,247.51 169.34,247.64L436.21,247.64L436.21,41.2Z" style="fill:rgb(255,233,192);fill-rule:nonzero;"/>
                <path d="M235.64,230C235.64,231.64 220.76,233 202.42,233C184.08,233 169.18,231.67 169.18,230C169.18,228.33 184.07,227 202.42,227C220.77,227 235.64,228.4 235.64,230Z" style="fill:rgb(254,165,0);fill-rule:nonzero;"/>
                <path d="M405.13,227.54C405.13,229.18 390.26,230.54 371.91,230.54C353.56,230.54 338.67,229.21 338.67,227.54C338.67,225.87 353.56,224.54 371.91,224.54C390.26,224.54 405.13,225.9 405.13,227.54Z" style="fill:rgb(254,165,0);fill-rule:nonzero;"/>
                <path d="M272.42,185.91C272.42,187.36 263.86,188.54 253.3,188.54C242.74,188.54 234.19,187.36 234.19,185.91C234.19,184.46 242.75,183.28 253.3,183.28C263.85,183.28 272.42,184.46 272.42,185.91Z" style="fill:rgb(254,165,0);fill-rule:nonzero;"/>
                <path d="M304.16,199.1C304.16,200.55 295.6,201.73 285.04,201.73C274.48,201.73 265.93,200.55 265.93,199.1C265.93,197.65 274.49,196.47 285.04,196.47C295.59,196.47 304.16,197.65 304.16,199.1Z" style="fill:rgb(254,165,0);fill-rule:nonzero;"/>
                <path d="M386.53,180.79C386.53,183.01 366.38,184.79 341.53,184.79C316.68,184.79 296.53,182.98 296.53,180.79C296.53,178.6 316.69,176.79 341.53,176.79C366.37,176.79 386.53,178.57 386.53,180.79Z" style="fill:rgb(254,165,0);fill-rule:nonzero;"/>
                <path d="M320.05,49.86C315.91,51.493 312.753,52.773 310.58,53.7C309.85,54.03 309.26,54.27 308.82,54.44C308.255,54.641 307.673,54.789 307.08,54.88C306.453,55.01 305.807,55.01 305.18,54.88C304.559,54.732 303.974,54.46 303.46,54.08C302.967,53.741 302.506,53.36 302.08,52.94C301.75,52.59 301.32,52.12 300.8,51.52C299.56,50.1 297.253,47.593 293.88,44C293.357,43.461 292.906,42.856 292.54,42.2L289.61,55.28C289.295,56.725 290.218,58.174 291.66,58.5L315.9,63.92C316.586,64.082 317.309,63.955 317.9,63.57C318.509,63.191 318.938,62.581 319.09,61.88L322,48.79C321.38,49.227 320.708,49.586 320,49.86L320.05,49.86Z" style="fill:rgb(72,128,74);fill-rule:nonzero;"/>
                <path d="M293.47,45.69C296.837,49.283 299.143,51.787 300.39,53.2C300.91,53.8 301.34,54.27 301.67,54.62C302.096,55.04 302.557,55.421 303.05,55.76C303.566,56.138 304.15,56.412 304.77,56.57C305.4,56.7 306.05,56.7 306.68,56.57C307.269,56.477 307.848,56.33 308.41,56.13C308.86,55.96 309.41,55.72 310.17,55.39C312.343,54.463 315.503,53.183 319.65,51.55C320.306,51.289 320.931,50.954 321.51,50.55C321.622,50.299 321.709,50.038 321.77,49.77C322.088,48.34 321.192,46.899 319.77,46.55L295.53,41.12C294.788,40.909 293.988,41.065 293.38,41.54C292.774,42.053 292.364,42.76 292.22,43.54C292.21,43.67 292.21,43.8 292.22,43.93C292.566,44.564 292.986,45.154 293.47,45.69Z" style="fill:rgb(51,51,51);fill-opacity:0.15;fill-rule:nonzero;"/>
                <path d="M293.84,44C297.22,47.587 299.527,50.09 300.76,51.51C301.28,52.11 301.71,52.59 302.04,52.93C302.46,53.356 302.923,53.737 303.42,54.07C303.936,54.448 304.52,54.722 305.14,54.88C305.771,55 306.419,55 307.05,54.88C307.64,54.785 308.219,54.634 308.78,54.43C309.23,54.26 309.78,54.02 310.54,53.7C312.713,52.76 315.873,51.477 320.02,49.85C320.676,49.589 321.301,49.254 321.88,48.85C321.99,48.602 322.077,48.344 322.14,48.08C322.299,47.392 322.168,46.669 321.78,46.08C321.404,45.473 320.798,45.043 320.1,44.89L295.86,39.47C295.118,39.259 294.318,39.415 293.71,39.89C293.102,40.401 292.692,41.109 292.55,41.89C292.523,42.022 292.506,42.156 292.5,42.29C292.877,42.911 293.327,43.485 293.84,44Z" style="fill:rgb(76,175,80);fill-rule:nonzero;"/>
                <path d="M363.17,178.69L318.42,178.69L326.23,163.23L357.25,163.23L363.17,178.69Z" style="fill:rgb(176,176,176);fill-rule:nonzero;"/>
                <path d="M317,177.58L365.18,177.58C366.376,177.58 367.36,178.564 367.36,179.76L367.36,181.32L314.77,181.32L314.77,179.76C314.77,179.756 314.77,179.753 314.77,179.749C314.77,178.559 315.75,177.579 316.94,177.579C316.96,177.579 316.98,177.579 317,177.58Z" style="fill:rgb(21,47,67);fill-rule:nonzero;"/>
                <path d="M406.87,73.81L406.87,162.26C406.87,164.515 405.015,166.37 402.76,166.37C402.753,166.37 402.747,166.37 402.74,166.37L281.74,166.37C279.482,166.37 277.621,164.518 277.61,162.26L277.61,73.81C277.615,71.541 279.481,69.675 281.75,69.67L402.75,69.67C405.014,69.681 406.87,71.546 406.87,73.81Z" style="fill:rgb(176,176,176);fill-rule:nonzero;stroke:rgb(164,164,164);stroke-width:0.3px;"/>
                <path d="M406.87,73.81L406.87,147.81L277.6,147.81L277.6,73.81C277.605,71.541 279.471,69.675 281.74,69.67L402.74,69.67C405.007,69.675 406.87,71.543 406.87,73.81Z" style="fill:rgb(21,47,67);fill-rule:nonzero;"/>
                <circle cx="341.25" cy="156.92" r="2.85" style="fill:rgb(21,47,67);"/>
                <g transform="matrix(-3.82857e-16,1,-1,-3.82857e-16,451.04,-233.43)">
                    <rect x="309.08" y="49.44" width="66.32" height="118.72" style="fill:rgb(241,249,255);"/>
                </g>
                <rect x="293.61" y="81.11" width="31.96" height="1.81" style="fill:rgb(69,122,163);"/>
                <rect x="293.61" y="84.6" width="19.51" height="1.7" style="fill:rgb(69,122,163);"/>
                <rect x="320.99" y="84.6" width="61.39" height="1.7" style="fill:rgb(69,122,163);"/>
                <rect x="303.76" y="88.1" width="26.83" height="1.79" style="fill:rgb(69,122,163);"/>
                <rect x="312.37" y="91.59" width="31.96" height="1.81" style="fill:rgb(69,122,163);"/>
                <rect x="346.42" y="91.59" width="26.79" height="2" style="fill:rgb(69,122,163);"/>
                <rect x="312.32" y="95.08" width="24.69" height="1.7" style="fill:rgb(69,122,163);"/>
                <rect x="339.37" y="95.08" width="50.93" height="1.88" style="fill:rgb(69,122,163);"/>
                <rect x="293.61" y="99.8" width="31.96" height="1.81" style="fill:rgb(69,122,163);"/>
                <rect x="293.61" y="103.29" width="19.51" height="1.7" style="fill:rgb(69,122,163);"/>
                <rect x="320.99" y="103.29" width="61.39" height="1.7" style="fill:rgb(69,122,163);"/>
                <rect x="303.76" y="106.78" width="26.83" height="1.79" style="fill:rgb(69,122,163);"/>
                <rect x="312.37" y="110.29" width="31.96" height="1.81" style="fill:rgb(69,122,163);"/>
                <rect x="346.42" y="110.29" width="26.79" height="2" style="fill:rgb(69,122,163);"/>
                <rect x="312.32" y="113.78" width="24.69" height="1.7" style="fill:rgb(69,122,163);"/>
                <rect x="339.37" y="113.78" width="50.93" height="1.88" style="fill:rgb(69,122,163);"/>
                <rect x="293.61" y="118.5" width="31.96" height="1.81" style="fill:rgb(69,122,163);"/>
                <rect x="293.61" y="121.99" width="19.51" height="1.7" style="fill:rgb(69,122,163);"/>
                <rect x="320.99" y="121.99" width="61.39" height="1.7" style="fill:rgb(69,122,163);"/>
                <rect x="303.76" y="125.48" width="26.83" height="1.79" style="fill:rgb(69,122,163);"/>
                <rect x="312.37" y="128.97" width="31.96" height="1.81" style="fill:rgb(69,122,163);"/>
                <rect x="346.42" y="128.97" width="26.79" height="2" style="fill:rgb(69,122,163);"/>
                <rect x="312.32" y="132.47" width="24.69" height="1.7" style="fill:rgb(69,122,163);"/>
                <rect x="339.37" y="132.47" width="50.93" height="1.88" style="fill:rgb(69,122,163);"/>
                <path d="M261.91,125.61C262.31,123.88 266.53,119.84 262.75,119.18C261.06,118.88 261.75,120.99 261.39,122.18C261.03,123.37 260.12,124.5 261.48,125.52L261.91,125.61Z" style="fill:rgb(245,178,156);fill-rule:nonzero;"/>
                <path d="M262.7,123.8C262.7,123.8 259.33,131.8 257.65,133.27C255.97,134.74 253.02,136.46 250.56,138.16C250.36,136.53 249.56,135.83 248.51,134.62C250.85,132.92 253.36,131.07 255.07,129.99C256.78,128.91 257.76,127.3 258.79,126.21C259.702,125.128 260.462,123.927 261.05,122.64C261.627,122.986 262.179,123.374 262.7,123.8Z" style="fill:rgb(254,165,0);fill-rule:nonzero;"/>
                <path d="M252.33,183C252.33,183 248.24,185.54 249.33,186.91C250.34,188.16 252.88,185.47 252.33,183Z" style="fill:rgb(21,47,67);fill-rule:nonzero;"/>
                <path d="M252.49,130.37C252.49,130.37 253.08,132.98 252.12,134.6C252.12,134.6 255.6,134.79 256.69,133.75L255.69,131.41C255.69,131.41 257.12,131.88 257.57,131.16C258.02,130.44 258.05,127 257.13,125.26C256.21,123.52 253.13,122.18 251.89,125.12C251.152,126.852 251.381,128.85 252.49,130.37Z" style="fill:rgb(245,178,156);fill-rule:nonzero;"/>
                <path d="M258.78,134.36C258.486,133.684 257.901,133.176 257.19,132.98C255.857,132.631 254.475,132.499 253.1,132.59C251.448,132.838 249.885,133.502 248.56,134.52C247.373,136.244 246.926,138.374 247.32,140.43C248.06,143.69 248.78,145.5 248.62,146.64C248.46,147.78 248.34,151.01 247.82,152.24C247.82,152.24 259.35,153.31 257.65,150.03C255.95,146.75 258.18,145.53 259.21,141.57C259.89,139.315 259.799,136.897 258.95,134.7C258.899,134.584 258.843,134.47 258.78,134.36Z" style="fill:rgb(254,165,0);fill-rule:nonzero;"/>
                <path d="M292.14,103.31C288.353,107.03 285.487,109.903 283.54,111.93C282.89,112.63 282.35,113.17 281.94,113.56C281.417,114.043 280.851,114.479 280.25,114.86C279.615,115.282 278.906,115.581 278.16,115.74C277.406,115.866 276.634,115.839 275.89,115.66C275.207,115.516 274.537,115.312 273.89,115.05C273.36,114.82 272.68,114.5 271.82,114.05C269.82,113.07 266.127,111.403 260.74,109.05C259.916,108.699 259.14,108.246 258.43,107.7L261.3,123.41C261.439,124.251 261.921,124.997 262.63,125.47C263.317,125.957 264.171,126.148 265,126L294.13,120.68C294.973,120.541 295.721,120.055 296.19,119.34C296.688,118.647 296.88,117.778 296.72,116.94L293.85,101.23C293.379,101.988 292.818,102.686 292.18,103.31L292.14,103.31Z" style="fill:rgb(72,128,74);fill-rule:nonzero;"/>
                <path d="M261,111.09C266.373,113.457 270.067,115.123 272.08,116.09C272.94,116.51 273.63,116.843 274.15,117.09C274.796,117.356 275.465,117.561 276.15,117.7C276.894,117.877 277.665,117.907 278.42,117.79C279.167,117.635 279.877,117.336 280.51,116.91C281.11,116.531 281.676,116.099 282.2,115.62C282.61,115.22 283.15,114.68 283.8,113.99C285.74,111.95 288.607,109.073 292.4,105.36C293.008,104.759 293.541,104.087 293.99,103.36C294.001,103.025 293.974,102.689 293.91,102.36C293.593,100.625 291.906,99.456 290.17,99.77L261.04,105.08C260.132,105.196 259.332,105.739 258.89,106.54C258.453,107.376 258.326,108.339 258.53,109.26C258.564,109.413 258.607,109.563 258.66,109.71C259.377,110.269 260.164,110.732 261,111.09Z" style="fill:rgb(51,51,51);fill-opacity:0.15;fill-rule:nonzero;"/>
                <path d="M260.67,109.1C266.043,111.473 269.737,113.14 271.75,114.1C272.603,114.513 273.293,114.847 273.82,115.1C274.467,115.364 275.136,115.568 275.82,115.71C276.564,115.887 277.335,115.917 278.09,115.8C278.838,115.647 279.548,115.348 280.18,114.92C280.783,114.541 281.352,114.109 281.88,113.63C282.29,113.23 282.82,112.69 283.47,111.99C285.423,109.99 288.293,107.117 292.08,103.37C292.685,102.766 293.218,102.095 293.67,101.37C293.674,101.035 293.648,100.7 293.59,100.37C293.258,98.645 291.581,97.487 289.85,97.79L260.72,103.1C259.81,103.216 259.007,103.758 258.56,104.56C258.127,105.397 258.003,106.361 258.21,107.28C258.239,107.434 258.283,107.584 258.34,107.73C259.055,108.284 259.838,108.745 260.67,109.1Z" style="fill:rgb(76,175,80);fill-rule:nonzero;"/>
                <path d="M271.35,127.57C272,125.92 276.75,122.57 273.11,121.33C271.48,120.79 271.83,122.98 271.33,124.08C270.83,125.18 269.74,126.19 270.95,127.4L271.35,127.57Z" style="fill:rgb(245,178,156);fill-rule:nonzero;"/>
                <path d="M272.4,125.89C272.4,125.89 267.91,133.32 266.04,134.55C264.17,135.78 261.04,137.04 258.33,138.37C258.33,136.73 257.65,135.92 256.81,134.57C259.36,133.23 262.11,131.76 263.96,130.94C265.81,130.12 266.96,128.66 268.19,127.72C269.244,126.778 270.166,125.699 270.93,124.51C271.452,124.935 271.943,125.396 272.4,125.89Z" style="fill:rgb(254,165,0);fill-rule:nonzero;"/>
                <path d="M248,150.11C247.177,153.52 247.222,157.082 248.13,160.47C249.02,164.22 247.43,166.4 247.34,168.81C247.25,171.22 248.75,176.81 248.92,179.81C249.09,182.81 248.04,186.95 248.92,187.05C249.8,187.15 250.05,187.59 250.57,186.91C250.687,185.854 250.717,184.791 250.66,183.73C250.727,180.097 251.001,176.471 251.48,172.87C252.077,169.286 252.312,165.651 252.18,162.02C252.197,159.83 252.374,157.644 252.71,155.48C253.046,153.316 250.19,149.51 248,150.11Z" style="fill:rgb(245,178,156);fill-rule:nonzero;"/>
                <path d="M248.7,185.59C248.7,185.59 249.17,186.54 250.7,185.48C250.7,185.48 250.89,187.48 249.59,187.39C248.84,187.338 248.477,187.03 248.408,186.616C248.358,186.312 248.467,185.95 248.7,185.59Z" style="fill:rgb(21,47,67);fill-rule:nonzero;"/>
                <path d="M259.77,184C259.77,184 256.041,185.205 255.856,186.616C255.836,186.769 255.858,186.924 255.93,187.08C256.59,188.51 259.71,186.52 259.77,184Z" style="fill:rgb(21,47,67);fill-rule:nonzero;"/>
                <path d="M254.12,150.35C253.383,153.781 253.513,157.342 254.5,160.71C255.5,164.44 253.94,166.65 253.91,169.07C253.88,171.49 255.51,177.07 255.76,179.98C256.01,182.89 255.05,187.14 255.93,187.22C256.81,187.3 257.07,187.73 257.57,187.04C257.66,185.982 257.66,184.918 257.57,183.86C257.552,180.229 257.739,176.6 258.13,172.99C258.638,169.39 258.786,165.749 258.57,162.12C258.53,159.93 258.653,157.741 258.94,155.57C259.227,153.399 256.31,149.7 254.12,150.35Z" style="fill:rgb(245,178,156);fill-rule:nonzero;"/>
                <path d="M255.68,185.8C255.68,185.8 256.17,186.75 257.68,185.65C257.68,185.65 257.92,187.65 256.62,187.58C255.32,187.51 255.15,186.67 255.68,185.8Z" style="fill:rgb(21,47,67);fill-rule:nonzero;"/>
                <path d="M255.19,122.31C255.42,122.37 255.65,122.44 255.9,122.53C256.33,122.69 256.1,122.66 256.57,122.61C257.04,122.56 257.21,122.31 257.57,122.39C259.66,122.82 257.9,125.21 257.11,125.88C256.32,126.55 255.98,126.41 255.93,127.63C255.956,128.592 256.235,129.531 256.74,130.35C257.74,132.06 258.74,133.67 257.74,135.7C257.26,136.64 256.15,137.97 255.02,137.16C256.59,139.47 253.6,140.76 251.67,140.88C249.74,141 247.82,139.18 248.89,137.31C247.14,137.75 246.95,135.63 247.16,134.41C247.37,133.19 248.27,132.02 248.76,130.79C249.25,129.56 248.86,128.45 248.83,127.14C248.744,125.076 250.054,123.194 252.02,122.56C253.009,122.088 254.139,121.999 255.19,122.31Z" style="fill:rgb(11,18,56);fill-rule:nonzero;"/>
                <path d="M259.23,160.84C258.53,164.03 258.78,167.18 258.59,170.42C255.07,171.69 250.92,170.42 247.36,170.42C247.71,164.51 246.01,158.5 246.36,152.49C246.44,150.9 248.55,147.69 248.55,147.69C249.81,148.034 251.099,148.265 252.4,148.38C254.005,148.419 255.61,148.325 257.2,148.1C258.235,150.127 259.104,152.233 259.8,154.4C260.069,156.563 259.875,158.758 259.23,160.84Z" style="fill:rgb(21,47,67);fill-rule:nonzero;"/>
                <path d="M357,97.17C353.193,98.783 350.29,100.05 348.29,100.97C347.62,101.29 347.08,101.53 346.67,101.7C346.152,101.9 345.616,102.051 345.07,102.15C344.485,102.263 343.885,102.263 343.3,102.15C342.719,102.022 342.168,101.781 341.68,101.44C341.213,101.148 340.775,100.813 340.37,100.44C340.06,100.13 339.65,99.7 339.15,99.16C337.957,97.867 335.753,95.593 332.54,92.34C332.043,91.849 331.61,91.298 331.25,90.7L328.85,102.92C328.819,103.079 328.803,103.24 328.803,103.401C328.803,104.603 329.669,105.642 330.85,105.86L353.5,110.32C353.657,110.35 353.816,110.365 353.975,110.365C355.179,110.365 356.223,109.502 356.45,108.32L358.85,96.1C358.291,96.502 357.687,96.838 357.05,97.1L357,97.17Z" style="fill:rgb(72,128,74);fill-rule:nonzero;"/>
                <path d="M332.16,93.93C335.38,97.19 337.583,99.463 338.77,100.75C339.27,101.29 339.68,101.75 339.99,102.03C340.395,102.403 340.833,102.738 341.3,103.03C341.788,103.371 342.339,103.612 342.92,103.74C343.505,103.853 344.105,103.853 344.69,103.74C345.236,103.641 345.772,103.49 346.29,103.29C346.7,103.12 347.24,102.88 347.91,102.56C349.91,101.64 352.813,100.373 356.62,98.76C357.226,98.492 357.799,98.156 358.33,97.76C358.427,97.525 358.501,97.28 358.55,97.03C358.695,96.374 358.553,95.685 358.16,95.14C357.797,94.585 357.222,94.201 356.57,94.08L334,89.64C333.3,89.462 332.556,89.629 332,90.09C331.459,90.577 331.105,91.239 331,91.96C330.985,92.083 330.985,92.207 331,92.33C331.321,92.908 331.711,93.445 332.16,93.93Z" style="fill:rgb(3,70,6);fill-opacity:0.15;fill-rule:nonzero;"/>
                <path d="M332.47,92.38C335.69,95.64 337.89,97.913 339.07,99.2C339.57,99.74 339.98,100.17 340.3,100.49C340.704,100.865 341.142,101.2 341.61,101.49C342.096,101.834 342.647,102.076 343.23,102.2C343.811,102.319 344.409,102.319 344.99,102.2C345.537,102.102 346.072,101.951 346.59,101.75C347.01,101.58 347.59,101.34 348.22,101.02C350.22,100.1 353.12,98.833 356.92,97.22C357.53,96.954 358.107,96.618 358.64,96.22C358.733,95.983 358.807,95.739 358.86,95.49C358.894,95.323 358.911,95.153 358.911,94.983C358.911,93.773 358.047,92.723 356.86,92.49L334.25,88.1C333.552,87.912 332.805,88.077 332.25,88.54C331.712,89.03 331.359,89.691 331.25,90.41L331.25,90.78C331.591,91.361 332,91.898 332.47,92.38Z" style="fill:rgb(76,175,80);fill-rule:nonzero;"/>
                <path d="M352.32,48.1C351.11,47.8 348.32,45.6 348.1,45.84C347.88,46.08 348.88,46.73 348.7,46.92C348.52,47.11 346.12,45.57 345.65,45.84C345.18,46.11 347.2,48.08 348.32,48.7C349.2,49.18 353.32,49.11 353.12,50.54L352.32,48.1Z" style="fill-rule:nonzero;"/>
                <path d="M351.21,47.4L350,49.29L357,53.18C357,53.18 359.76,53.43 361.85,53.37C362.552,53.383 363.252,53.32 363.94,53.18C365.54,52.74 366.55,50.79 365.13,49.49C363.71,48.19 362.13,49.9 360.67,50.04C359.499,50.134 358.321,50.134 357.15,50.04L351.21,47.4Z" style="fill:rgb(221,149,14);fill-rule:nonzero;"/>
                <path d="M370.32,63.52C365.72,60.6 353.57,67.52 352.56,68.37C351.78,68.99 353.5,78.46 354.36,82.95C354.63,84.36 354.82,85.29 354.82,85.29C354.82,85.29 353.06,87.06 353.45,88.03C353.45,88.03 357.92,85.12 357.07,83.9C356.9,83.76 357,83.47 357.92,83.22C356.86,76.45 358.73,72.86 356.55,70.83C356.55,70.83 368.27,70.53 369.81,69.94C371.35,69.35 374.92,66.44 370.32,63.52Z" style="fill:rgb(20,63,97);fill-rule:nonzero;"/>
                <path d="M371.36,64.42C371.36,64.42 354.2,57 353.09,57.09C351.52,57.27 342.23,67.99 342.23,67.99C340.923,68.471 339.667,69.081 338.48,69.81L343.84,69.87L344.29,68.54C344.29,68.54 345.4,69.24 345.67,68.98C346.46,68.2 353.04,63.4 353.02,61.98L366.54,68.5C366.54,68.5 371.43,68.37 371.36,64.42Z" style="fill:rgb(20,63,97);fill-rule:nonzero;"/>
                <path d="M368.14,45.7C368.14,46.76 367.78,48.92 368.44,49.8C369.1,50.68 372.18,51.88 371.04,53.21C370.173,53.891 369.135,54.32 368.04,54.45C366.265,54.913 364.393,54.839 362.66,54.24C361.782,53.934 361.267,53.008 361.47,52.1C361.63,51.5 362.12,51.24 362.47,50.75C362.82,50.26 362.9,49.42 363.58,49.11C364.03,48.91 364.74,49.11 365.1,48.87C365.46,48.63 365.57,47.7 365.57,47.28C365.52,45.9 367.43,44.88 368.14,45.7Z" style="fill-rule:nonzero;"/>
                <path d="M368.06,47.27C368.031,46.874 368.031,46.476 368.06,46.08C367.19,45.71 365.78,46.59 365.47,47.79C365.47,47.89 365.47,47.99 365.42,48.09C365.415,48.177 365.415,48.263 365.42,48.35L365.11,48.86C365.284,49.304 365.695,49.614 366.17,49.66C366.93,49.7 367.72,48 368.06,47.27Z" style="fill-rule:nonzero;"/>
                <path d="M365.19,43C365.19,43 363.19,46.59 365.03,47.9C366.87,49.21 368.36,47.47 369.38,46.19C370.52,44.74 370.65,44.19 368.47,42.62C368.07,42.243 367.54,42.034 366.99,42.034C366.267,42.034 365.59,42.397 365.19,43Z" style="fill-rule:nonzero;"/>
                <path d="M364.25,42.7C364.63,41.48 365.85,41.12 367.07,41.06C367.645,40.993 368.226,41.131 368.71,41.45C369.228,41.943 369.593,42.575 369.76,43.27L364.25,42.7Z" style="fill:rgb(11,18,56);fill-rule:nonzero;"/>
                <path d="M369.91,41.45C367.44,39.12 365.21,41.89 365.21,41.89C365.147,41.989 365.1,42.097 365.07,42.21C364.77,43.27 366.12,43.94 366.98,43.7C366.64,43.79 367.39,44.55 367.47,44.6C367.93,44.88 368.47,44.7 368.87,44.86L368.97,44.86L369.09,44.96C369.44,45.37 368.74,46.25 368.73,46.81C369.511,46.651 370.141,46.067 370.36,45.3C371.167,44.084 370.976,42.447 369.91,41.45Z" style="fill:rgb(11,18,56);fill-rule:nonzero;"/>
                <path d="M358.61,45.9C357.47,45.29 355.2,42.38 354.94,42.56C354.68,42.74 355.5,43.66 355.27,43.8C355.04,43.94 353.01,41.8 352.47,41.94C351.93,42.08 353.47,44.59 354.47,45.5C355.23,46.2 359.42,47.17 358.83,48.5L358.61,45.9Z" style="fill-rule:nonzero;"/>
                <path d="M372.32,63.16C372.32,63.16 374.18,70.01 368.18,70.16L364.74,62.72L372.32,63.16Z" style="fill:rgb(20,63,97);fill-rule:nonzero;"/>
                <path d="M366.1,65.56C363.48,64.16 364.17,63.06 363.65,60.47C363.13,57.88 362.41,56.77 361.52,53.29C360.63,49.81 363.52,49.11 363.52,49.11C363.52,49.11 363.02,50.22 364.87,50.65C366.128,50.85 367.416,50.544 368.45,49.8C369.484,49.056 369.86,50.56 370.29,50.87C371.86,51.96 372.29,54.34 372.55,56.11C373.03,59.55 373.14,64.95 372.61,65.85C372.08,66.75 368.72,67 366.1,65.56Z" style="fill:rgb(254,165,0);fill-rule:nonzero;"/>
                <path d="M366.77,47C365.917,47.028 365.105,46.625 364.61,45.93C364.115,45.235 364.41,47.04 365.1,47.35C365.79,47.66 366.77,47 366.77,47Z" style="fill-rule:nonzero;"/>
                <path d="M358.36,45.33L356.56,46.77L362.07,52.94C362.07,52.94 364.68,54.11 366.75,54.76C367.437,55.004 368.147,55.175 368.87,55.27C370.59,55.38 372.23,53.81 371.28,52.06C370.33,50.31 368.28,51.46 366.72,51.06C365.541,50.757 364.388,50.362 363.27,49.88L358.36,45.33Z" style="fill:rgb(221,149,14);fill-rule:nonzero;"/>
                <path d="M381.37,127.29C379.28,126.91 376.3,129.16 375.47,131.05C374.775,132.393 373.908,133.641 372.89,134.76L374.16,135.87C374.16,135.87 374.05,140.41 377.01,141.05C378.9,141.46 382.01,140.14 383.61,138.22C385.79,135.55 385.31,134.39 385.13,132.36C384.97,130.54 383.45,128.04 381.78,127.36C381.646,127.322 381.509,127.298 381.37,127.29Z" style="fill:rgb(245,178,156);fill-rule:nonzero;"/>
                <path d="M382.55,134.89C382.07,137.49 379.55,139.59 377.71,141.46C377.864,143.264 377.25,145.051 376.02,146.38C375.49,146.98 380.78,145.38 381.27,145.28C382.55,144.95 384.67,144.88 385.66,143.95C386.65,143.02 387.03,143.12 386.22,142.2C385,140.81 383.72,138.2 382.96,134.09L382.55,134.89Z" style="fill:rgb(245,178,156);fill-rule:nonzero;"/>
                <path d="M381.66,138.54C380.841,139.712 379.666,140.588 378.31,141.04C378.305,141.871 378.128,142.691 377.79,143.45C379.385,142.079 380.699,140.411 381.66,138.54Z" style="fill:rgb(185,179,192);fill-rule:nonzero;"/>
                <path d="M401.71,223.68L402.19,225.88L394.59,227.43C394.59,227.43 394,226 396.91,225C399.82,224 399.28,223.22 399.28,223.22L398.73,219.98L401.44,218.87L401.71,223.68Z" style="fill:rgb(21,47,67);fill-rule:nonzero;"/>
                <path d="M378.81,181.23C378.81,181.23 384.81,196.62 388.12,201.54C392,207.3 398.12,220.06 398.22,223.39L401.8,222.54C401.8,222.54 402,211.7 399.12,207C396.24,202.3 395.38,197.69 393.95,192.6C392.52,187.51 391,175.13 391,175.13C391,175.13 375.57,169.66 378.81,181.23Z" style="fill:rgb(21,47,67);fill-rule:nonzero;"/>
                <path d="M365.86,224.13L365.66,226.27L358.2,224.72C358.2,224.72 358.1,223.23 361.07,223.41C364.04,223.59 363.77,222.73 363.77,222.73L364.23,219.64L367.05,219.69L365.86,224.13Z" style="fill:rgb(21,47,67);fill-rule:nonzero;"/>
                <path d="M376.74,171.1C376.74,171.1 369.32,197.18 369.12,197.59C368.92,198 362.52,221.98 362.52,221.98C362.52,221.98 365.43,223.04 367.25,222.52C370.294,215.67 372.965,208.659 375.25,201.52C378.413,197.291 381.283,192.85 383.84,188.23C386.45,183.81 392.46,180.85 391.68,170.8C390.9,160.75 377.58,165.25 376.74,171.1Z" style="fill:rgb(31,63,87);fill-rule:nonzero;"/>
                <path d="M381,164.41C381.86,160.71 376.35,157.47 372.91,156.6C372.864,159.029 373.079,161.456 373.55,163.84C377.28,165.35 380.61,166.12 381,164.41Z" style="fill:rgb(205,216,228);fill-rule:nonzero;"/>
                <path d="M376.28,146C374.723,148.554 373.703,151.399 373.28,154.36C373.059,157.205 373.313,160.068 374.03,162.83C374.61,165.48 374.37,168.47 374.51,171.19C374.61,172.99 374.99,174.77 374.96,176.57C376.429,175.991 378.003,175.725 379.58,175.79C382.42,175.66 385.25,175.44 388.1,175.43C389.01,175.43 391.48,176.07 391.67,174.86C391.81,174.01 391.67,173.1 391.74,172.25C391.81,171.4 391.96,170.71 392.04,169.92C392.16,168.86 392.53,167.72 391.98,166.73C391.431,165.87 391.064,164.907 390.9,163.9C390.44,160.69 390.99,157.16 391.34,153.96C391.94,148.37 390.26,145.74 388.15,143.44C386.04,141.14 383.32,142.3 381.43,143.78C379.54,145.26 378.75,145.37 376.28,146Z" style="fill:rgb(254,165,0);fill-rule:nonzero;"/>
                <path d="M399.73,158.74C395.137,161.307 391.647,163.307 389.26,164.74C388.46,165.233 387.81,165.613 387.31,165.88C386.672,166.214 386.002,166.482 385.31,166.68C384.598,166.927 383.843,167.029 383.09,166.98C382.339,166.896 381.612,166.665 380.95,166.3C380.316,165.989 379.713,165.617 379.15,165.19C378.71,164.84 378.15,164.35 377.42,163.73C375.747,162.27 372.653,159.71 368.14,156.05C367.444,155.496 366.819,154.858 366.28,154.15L364.94,169.91C364.797,171.653 366.108,173.207 367.85,173.36L397.07,175.84C398.811,175.989 400.367,174.681 400.52,172.94L401.86,157.17C401.218,157.776 400.502,158.301 399.73,158.73L399.73,158.74Z" style="fill:rgb(72,128,74);fill-rule:nonzero;"/>
                <path d="M368,158.09C372.507,161.757 375.6,164.32 377.28,165.78C377.99,166.4 378.56,166.89 379.01,167.24C379.571,167.665 380.17,168.036 380.8,168.35C381.465,168.715 382.196,168.943 382.95,169.02C383.706,169.07 384.464,168.968 385.18,168.72C385.871,168.52 386.541,168.252 387.18,167.92C387.67,167.65 388.32,167.27 389.12,166.78C391.513,165.34 395.003,163.34 399.59,160.78C400.308,160.367 400.978,159.878 401.59,159.32C401.68,159.01 401.74,158.692 401.77,158.37C401.908,156.628 400.6,155.078 398.86,154.92L369.64,152.43C368.74,152.301 367.83,152.614 367.2,153.27C366.568,153.958 366.196,154.847 366.15,155.78C366.14,155.933 366.14,156.087 366.15,156.24C366.686,156.933 367.307,157.554 368,158.09Z" style="fill:rgb(51,51,51);fill-opacity:0.15;fill-rule:nonzero;"/>
                <path d="M368.14,156.1C372.647,159.76 375.74,162.32 377.42,163.78C378.13,164.41 378.7,164.89 379.15,165.24C379.711,165.665 380.31,166.036 380.94,166.35C381.604,166.718 382.335,166.949 383.09,167.03C383.846,167.08 384.604,166.978 385.32,166.73C386.009,166.528 386.679,166.264 387.32,165.94C387.81,165.67 388.46,165.28 389.26,164.79C391.647,163.35 395.137,161.35 399.73,158.79C400.452,158.384 401.123,157.894 401.73,157.33C401.82,157.02 401.88,156.702 401.91,156.38C402.048,154.638 400.74,153.088 399,152.93L369.78,150.45C368.881,150.319 367.972,150.628 367.34,151.28C366.708,151.968 366.336,152.857 366.29,153.79C366.28,153.943 366.28,154.097 366.29,154.25C366.829,154.94 367.45,155.561 368.14,156.1Z" style="fill:rgb(82,158,85);fill-rule:nonzero;"/>
                <path d="M398.72,167.26C393.7,168.833 389.873,170.077 387.24,170.99C386.36,171.31 385.64,171.55 385.1,171.72C384.423,171.908 383.73,172.032 383.03,172.09C382.277,172.184 381.512,172.13 380.78,171.93C380.046,171.701 379.366,171.327 378.78,170.83C378.222,170.396 377.709,169.907 377.25,169.37C376.89,168.94 376.42,168.37 375.86,167.59C374.527,165.817 372.02,162.677 368.34,158.17C367.774,157.485 367.293,156.732 366.91,155.93L362.37,171.08C362.276,171.385 362.228,171.703 362.228,172.022C362.228,173.43 363.16,174.679 364.51,175.08L392.61,183.5C393.415,183.762 394.295,183.671 395.03,183.25C395.791,182.869 396.355,182.181 396.58,181.36L401.12,166.21C400.364,166.671 399.555,167.037 398.71,167.3L398.72,167.26Z" style="fill:rgb(72,128,74);fill-rule:nonzero;"/>
                <path d="M367.77,160.12C371.437,164.627 373.94,167.767 375.28,169.54C375.84,170.3 376.28,170.89 376.67,171.32C377.129,171.857 377.642,172.346 378.2,172.78C378.787,173.275 379.467,173.649 380.2,173.88C380.929,174.08 381.69,174.134 382.44,174.04C383.143,173.981 383.84,173.857 384.52,173.67C385.06,173.5 385.77,173.26 386.66,172.94C389.287,172.027 393.11,170.783 398.13,169.21C398.927,168.96 399.695,168.625 400.42,168.21C400.572,167.926 400.696,167.628 400.79,167.32C401.299,165.636 400.333,163.831 398.65,163.32L370.55,154.9C369.697,154.588 368.744,154.703 367.99,155.21C367.235,155.756 366.693,156.548 366.46,157.45C366.416,157.601 366.383,157.755 366.36,157.91C366.738,158.702 367.211,159.444 367.77,160.12Z" style="fill:rgb(51,51,51);fill-opacity:0.15;fill-rule:nonzero;"/>
                <path d="M368.34,158.2C372.013,162.713 374.52,165.853 375.86,167.62C376.42,168.38 376.86,168.97 377.25,169.4C377.712,169.935 378.224,170.424 378.78,170.86C379.366,171.357 380.046,171.731 380.78,171.96C381.509,172.159 382.27,172.214 383.02,172.12C383.724,172.06 384.42,171.933 385.1,171.74C385.64,171.58 386.36,171.34 387.24,171.02C389.867,170.113 393.693,168.87 398.72,167.29C399.515,167.042 400.279,166.707 401,166.29C401.156,166.008 401.28,165.71 401.37,165.4C401.632,164.59 401.537,163.706 401.11,162.97C400.731,162.217 400.052,161.658 399.24,161.43L371.13,153C370.277,152.688 369.324,152.803 368.57,153.31C367.811,153.854 367.266,154.647 367.03,155.55C366.989,155.701 366.959,155.855 366.94,156.01C367.316,156.794 367.786,157.53 368.34,158.2Z" style="fill:rgb(76,175,80);fill-rule:nonzero;"/>
                <path d="M391.11,147.88C389.53,145.29 387.52,142.58 384.85,145.55C382.18,148.52 385.76,153.87 387.22,158.3C388.68,162.73 388.08,163.72 387.22,166.54C386.36,169.36 383.81,175.54 382.55,176.65C381.29,177.76 376.79,180.17 379.23,181.83C380.186,182.437 381.335,182.666 382.45,182.47C383.02,181.222 383.689,180.022 384.45,178.88C386.06,176.6 387.96,174.66 389.64,172.45C391.728,169.936 393.442,167.134 394.73,164.13C396.018,161.126 393.67,152.1 391.11,147.88Z" style="fill:rgb(245,178,156);fill-rule:nonzero;"/>
                <path d="M391.11,147.88C389.53,145.29 387.52,142.58 384.85,145.55C382.18,148.52 385.76,153.87 387.22,158.3C388.68,162.73 388.08,163.72 387.22,166.54C386.54,168.412 385.694,170.22 384.69,171.94C384.35,172.57 382.38,175.59 382.36,176.3C382.36,177.43 385.3,177.94 386.03,178.48C386.98,177.85 388.17,175.92 388.89,175.02C389.79,173.9 390.35,172.63 391.22,171.47C392.748,169.208 393.937,166.736 394.75,164.13C395.563,161.524 393.67,152.1 391.11,147.88Z" style="fill:rgb(221,149,14);fill-rule:nonzero;"/>
                <path d="M379.57,131.81C378.8,131.44 377.99,131.81 377.19,131.81C376.211,131.752 375.276,131.384 374.52,130.76C374.04,130.36 373.37,129.41 373.83,128.76C374.307,128.301 375.073,128.301 375.55,128.76C374.65,127.13 376.33,125.98 377.8,125.87C378.654,125.85 379.507,125.911 380.35,126.05C381.93,126.21 383.54,127.65 384.65,128.68C385.533,129.579 386.044,130.78 386.08,132.04C386.21,133.49 386.08,136.04 384.7,136.97C384.22,137.28 380.13,137.02 380.43,136.33C380.73,135.64 381.78,134.99 381.6,134.05C381.472,133.63 381.082,133.34 380.643,133.34C380.39,133.34 380.145,133.437 379.96,133.61C379.6,133.25 379.73,132.44 379.49,131.94L379.57,131.81Z" style="fill:rgb(11,18,56);fill-rule:nonzero;"/>
                <path d="M294.7,140.57C294.56,140.405 294.445,140.219 294.36,140.02C293.76,138.77 295.26,137.3 295.94,136.46C296.698,135.529 297.32,134.495 297.79,133.39C298.03,132.86 298.28,131.48 298.79,131.22C299.07,131.47 298.5,133.28 299.38,132.15C300.05,131.29 301.27,129.72 301.62,129.83C301.97,129.94 300.71,131.24 300.89,131.51C301.07,131.78 302.57,130.02 302.77,130.23C302.97,130.44 301.44,131.84 301.62,132.06C301.92,132.43 302.74,131.11 303.01,131.32C303.28,131.53 302.25,132.32 302.01,132.87C302.52,133.06 303.24,131.87 303.32,132.48C303.4,133.09 301.51,133.83 300.95,134.33C299.924,135.255 299.126,136.405 298.62,137.69C298.21,138.74 296.08,142.18 294.7,140.57Z" style="fill:rgb(245,178,156);fill-rule:nonzero;"/>
                <path d="M268.68,162.05C268.425,163.288 267.903,164.455 267.15,165.47C267.2,164.89 267.35,165.04 266.85,164.24C266.35,163.44 264.04,167.15 263.4,167.17C262.76,167.19 265.29,162.3 266.65,161.42L268.68,162.05Z" style="fill:rgb(245,178,156);fill-rule:nonzero;"/>
                <path d="M274.48,143.27C272.37,142.68 269.68,152.11 269.27,153.52C268.43,156.41 266.63,159.35 266.04,162.17C266.931,162.334 267.809,162.558 268.67,162.84C270.16,159.44 271.27,158.14 272.09,155.57C272.792,153.656 273.638,151.797 274.62,150.01L274.48,143.27Z" style="fill:rgb(254,165,0);fill-rule:nonzero;"/>
                <path d="M278,137.9C279.36,139.5 278,143.27 277.33,145.11C278.459,144.855 279.631,144.855 280.76,145.11C280.91,142.85 280.76,139.73 281.27,138.11L278,137.9Z" style="fill:rgb(245,178,156);fill-rule:nonzero;"/>
                <path d="M289,199.25C289.92,199.19 294.79,197.91 293,196.85C291.8,196.15 289.31,196.59 288.24,197.35L289,199.25Z" style="fill:rgb(46,48,84);fill-rule:nonzero;"/>
                <path d="M287.51,191.69C287.062,191.737 286.642,191.935 286.32,192.25C284.66,193.61 286.21,196.4 287.01,197.79C287.81,199.18 291.37,199.65 291.33,197.25C291.33,196.78 289.33,197.16 289.1,197.19C289.67,197.11 289.57,191.6 287.51,191.69Z" style="fill:rgb(245,178,156);fill-rule:nonzero;"/>
                <path d="M276,200.12C277.52,199.74 280.36,199.49 281.13,197.95C280.138,197.596 279.05,197.613 278.07,198C277.975,196.842 277.818,195.691 277.6,194.55C277.49,193.24 277.41,191.93 277.39,190.62C277.32,187.84 272.67,191.76 276,200.12Z" style="fill:rgb(245,178,156);fill-rule:nonzero;"/>
                <path d="M284.2,143.5C284.32,143.49 284.44,143.49 284.56,143.5C285.67,143.73 285.98,144.25 285.93,145.38C285.74,149.13 284.72,152.99 284.18,156.68C283.87,158.8 285.27,160.25 284.23,162.15C283.173,163.55 281.584,164.455 279.84,164.65C278.004,164.847 276.165,164.287 274.75,163.1C273.08,161.59 273.31,159.24 273.31,157.18C273.31,153.68 272.63,150.56 273.12,147.05C273.31,145.67 273.12,144.05 274.21,143.05C275.89,141.5 279.02,141.9 281,142.56C281.63,142.77 282.2,143.22 282.85,143.37C283.295,143.458 283.747,143.502 284.2,143.5Z" style="fill:rgb(254,165,0);fill-rule:nonzero;"/>
                <path d="M284.32,157.5L290.25,196.24L286.04,196.47L278.18,171.55L278.8,196.94L274.59,197.72C274.59,197.72 271.69,179.88 271.79,174.2C271.89,168.52 271.23,160.72 273.53,157.34C273.53,157.34 281.13,159.4 284.32,157.5Z" style="fill:rgb(21,47,67);fill-rule:nonzero;"/>
                <path d="M278.86,139C279.39,141.54 283.34,140.66 284.02,139.06C284.79,137.311 284.709,135.301 283.8,133.62C283.05,131.18 282.37,130.75 280.58,130.62C280.58,130.62 277.28,131.47 278.86,139Z" style="fill:rgb(245,178,156);fill-rule:nonzero;"/>
                <path d="M275.64,199.08C276.354,199.049 277.065,198.975 277.77,198.86C278.08,198.79 279.07,198.07 278.26,197.98C278.98,197.37 281.26,197.57 281.98,198.1C282.55,198.51 275.98,200.1 275.98,200.1C275.89,199.78 275.76,199.43 275.64,199.08Z" style="fill:rgb(46,48,84);fill-rule:nonzero;"/>
                <path d="M282.87,133C282.01,134.71 281.59,140.64 278.63,139.66C276.38,138.92 276.79,133.17 277.79,131.46C278.61,130.05 283.38,129.46 284.29,130.96C285.44,132.84 283.23,132.25 282.87,133Z" style="fill:rgb(11,18,56);fill-rule:nonzero;"/>
                <path d="M299.52,135.88C299.62,137.42 294.01,143.88 294.01,143.88C294.01,143.88 286.96,148.99 284.18,150.38C284.158,148.426 283.649,146.508 282.7,144.8C285.36,143.41 292.18,140.54 292.18,140.54C292.18,140.54 296.46,135.54 297.4,134.33C297.81,134.58 299.52,135.88 299.52,135.88Z" style="fill:rgb(254,165,0);fill-rule:nonzero;"/>
                <path d="M291.64,197C290.56,198.33 288.73,198.08 287.28,198C286.65,200.34 289.97,199.16 290.99,198.43L291.64,197Z" style="fill:rgb(46,48,84);fill-rule:nonzero;"/>
                <g transform="matrix(1,0,0,1,1,0)">
                    <path d="M418.21,137.79C414.702,136.843 412.308,133.549 412.49,129.92C412.61,127.92 413.49,128.19 414.69,126.99C415.89,125.79 415.27,125.25 414.19,123.84C412.19,121.27 410.36,118.37 411.19,114.94C411.95,111.7 415.79,111.75 414.95,108.36C413.85,104 414.29,99.66 414.79,95.18C415.09,92.57 416.04,86.18 419.65,86.07C423.05,85.98 422.88,92.32 422.95,94.47C423.02,96.47 422.59,97.86 424.13,98.98C426.13,100.43 428.37,100.91 428.78,103.79C429.27,107.2 425.5,108.63 425.31,111.65C425.16,114.16 428.75,115.65 430.02,117.65C432.42,121.52 427.75,121.55 427.36,124.65C427.314,124.836 427.229,125.01 427.11,125.16C428.42,126.16 430.22,126.67 430.97,128.26C431.734,130.021 431.335,132.081 429.97,133.43C427.4,136.29 422.57,138.82 418.71,137.9L418.21,137.79Z" style="fill-opacity:0.3;fill-rule:nonzero;"/>
                </g>
                <g transform="matrix(1,0,0,1,1,0)">
                    <path d="M418.21,137.79C414.702,136.843 412.308,133.549 412.49,129.92C412.61,127.92 413.49,128.19 414.69,126.99C415.89,125.79 415.27,125.25 414.19,123.84C412.19,121.27 410.36,118.37 411.19,114.94C411.95,111.7 415.79,111.75 414.95,108.36C413.85,104 414.29,99.66 414.79,95.18C415.09,92.57 416.04,86.18 419.65,86.07C423.05,85.98 422.88,92.32 422.95,94.47C423.02,96.47 422.59,97.86 424.13,98.98C426.13,100.43 428.37,100.91 428.78,103.79C429.27,107.2 425.5,108.63 425.31,111.65C425.16,114.16 428.75,115.65 430.02,117.65C432.42,121.52 427.75,121.55 427.36,124.65C427.314,124.836 427.229,125.01 427.11,125.16C428.42,126.16 430.22,126.67 430.97,128.26C431.734,130.021 431.335,132.081 429.97,133.43C427.4,136.29 422.57,138.82 418.71,137.9L418.21,137.79Z" style="fill:rgb(254,165,0);fill-rule:nonzero;"/>
                </g>
                <path d="M426.29,160.26C426.29,160.54 423.44,160.77 419.92,160.77C416.4,160.77 413.56,160.54 413.56,160.26C413.56,159.98 416.41,159.74 419.92,159.74C423.43,159.74 426.29,160 426.29,160.26Z" style="fill:rgb(254,165,0);fill-rule:nonzero;"/>
                <g transform="matrix(1,0,0,1,1,0)">
                    <rect x="419.53" y="86.07" width="0.17" height="72.3" style="fill:white;"/>
                </g>
                <g transform="matrix(1,0,0,1,1,0)">
                    <path d="M419.68,112.26L428.68,103.26L428.62,103.07L419.62,112.07L419.68,112.26Z" style="fill:white;fill-rule:nonzero;"/>
                </g>
                <g transform="matrix(1,0,0,1,1,0)">
                    <path d="M419.68,109.52L427.68,101.52L427.56,101.4L419.56,109.4L419.68,109.52Z" style="fill:white;fill-rule:nonzero;"/>
                </g>
                <g transform="matrix(1,0,0,1,1,0)">
                    <path d="M419.68,121.94L426.94,114.68L426.81,114.56L419.56,121.82L419.68,121.94Z" style="fill:white;fill-rule:nonzero;"/>
                </g>
                <g transform="matrix(1,0,0,1,1,0)">
                    <path d="M419.56,97.52L419.68,97.64L422.92,94.4L422.92,94.16L419.56,97.52Z" style="fill:white;fill-rule:nonzero;"/>
                </g>
                <g transform="matrix(1,0,0,1,1,0)">
                    <path d="M419.56,123.47L419.68,123.59L427.82,115.45L427.68,115.34L419.56,123.47Z" style="fill:white;fill-rule:nonzero;"/>
                </g>
                <g transform="matrix(1,0,0,1,1,0)">
                    <path d="M428.78,127.58L419.56,136.8L419.68,136.93L428.9,127.7L428.78,127.58Z" style="fill:white;fill-rule:nonzero;"/>
                </g>
                <g transform="matrix(0.707107,-0.707107,0.707107,0.707107,38.84,335.77)">
                    <rect x="417.71" y="122.12" width="13.05" height="0.17" style="fill:white;"/>
                </g>
                <g transform="matrix(1,0,0,1,1,0)">
                    <path d="M419.77,116.71L414.22,111.16L414.1,111.28L419.65,116.83L419.77,116.71Z" style="fill:white;fill-rule:nonzero;"/>
                </g>
                <g transform="matrix(1,0,0,1,1,0)">
                    <path d="M419.77,118.72L413.17,112.11L413.03,112.22L419.65,118.84L419.77,118.72Z" style="fill:white;fill-rule:nonzero;"/>
                </g>
                <g transform="matrix(1,0,0,1,1,0)">
                    <path d="M419.77,131.14L415.12,126.49C415.09,126.542 415.057,126.592 415.02,126.64L419.65,131.26L419.77,131.14Z" style="fill:white;fill-rule:nonzero;"/>
                </g>
                <g transform="matrix(1,0,0,1,1,0)">
                    <path d="M419.56,134.06L419.68,134.18L428.06,125.8L427.91,125.72L419.56,134.06Z" style="fill:white;fill-rule:nonzero;"/>
                </g>
                <g transform="matrix(1,0,0,1,1,0)">
                    <path d="M415.7,90.41L419.65,94.35L419.77,94.23L415.77,90.23L415.7,90.41Z" style="fill:white;fill-rule:nonzero;"/>
                </g>
                <g transform="matrix(1,0,0,1,1,0)">
                    <path d="M419.77,103.73L414.43,98.39L414.43,98.62L419.67,103.85L419.77,103.73Z" style="fill:white;fill-rule:nonzero;"/>
                </g>
                <g transform="matrix(1,0,0,1,1,0)">
                    <path d="M419.77,105.56L414.3,100.09C414.305,100.17 414.305,100.25 414.3,100.33L419.66,105.68L419.77,105.56Z" style="fill:white;fill-rule:nonzero;"/>
                </g>
                <g transform="matrix(1,0,0,1,1,0)">
                    <rect x="419.58" y="138.04" width="0.28" height="20.33" style="fill:rgb(254,165,0);"/>
                </g>
                <path d="M420.71,159.89C420.71,159.89 415.71,142.03 412.54,149.83C409.37,157.63 420.71,159.89 420.71,159.89Z" style="fill:rgb(254,165,0);fill-rule:nonzero;"/>
                <path d="M420.57,160.62L420.57,160.08C420.57,159.51 419.82,146 423.39,142.22C424.001,141.493 424.936,141.117 425.88,141.22C426.624,141.256 427.288,141.704 427.6,142.38C429.52,146.38 421.24,159.57 420.89,160.12L420.57,160.62ZM425.49,141.62C424.768,141.628 424.084,141.945 423.61,142.49C420.54,145.74 420.76,156.9 420.86,159.49C422.35,157.06 428.86,145.99 427.26,142.56C427.003,141.982 426.442,141.595 425.81,141.56L425.49,141.62Z" style="fill:rgb(254,165,0);fill-rule:nonzero;"/>
                <path d="M214.59,203.82C214.23,201.33 210.2,181.54 210.2,181.54C208.84,176.54 198.37,172.94 198.79,181.07C199.21,189.2 211.1,202.84 207.05,205.73C201.55,209.66 196.63,219.42 192.85,222.57C192.423,222.909 192.046,223.306 191.73,223.75L190.34,225.14L194.18,230.14C194.18,230.14 195.08,229.06 193.83,227C193.653,226.724 193.569,226.398 193.59,226.07C193.76,226.05 215,206.31 214.59,203.82Z" style="fill:rgb(173,92,50);fill-rule:nonzero;"/>
                <path d="M201.25,148.66C199.979,149.478 198.76,150.373 197.6,151.34C196.44,152.307 202.06,147.34 201.85,143.24C201.64,139.14 203.48,140.56 205.36,141.79C206.47,142.52 206.19,145.3 206.57,146.61C206.86,147.61 207.71,148.88 207.57,149.96C207.25,152.14 205.57,149.66 204.57,149.09C203.522,148.653 202.375,148.504 201.25,148.66Z" style="fill:rgb(173,112,77);fill-rule:nonzero;"/>
                <path d="M205.37,230.23C204.669,230.106 204.14,229.511 204.1,228.8L204.37,226.6C204.47,226.27 204.56,226.05 204.56,226.05L204.42,226.21L206.86,206.5C206.86,206.5 213.6,181.55 213.04,177.19C212.69,174.37 205.44,175.19 203.47,174.7C200.26,173.89 198.9,175.61 198.05,178.34C197.9,178.83 197.77,179.34 197.64,179.89C195.69,188.29 201.85,196.28 200.75,204.76C199.75,212.67 201.58,229.36 201.58,229.36L201.67,231.56L207.92,232.1C207.92,232.1 207.73,230.71 205.37,230.23Z" style="fill:rgb(173,112,77);fill-rule:nonzero;"/>
                <path d="M217.09,189.91C216.65,187.02 214.76,178.15 214.76,178.15C214.76,178.15 214.46,177.31 213.76,174.9C213.49,173.9 213.47,172.97 213.18,172.03C212.61,170.16 212.18,170.34 210.18,170.24C207.304,169.984 204.405,170.297 201.65,171.16C199.215,172.023 197.389,174.08 196.82,176.6C196.51,178.28 196.82,180.06 196.49,181.77C196.11,183.77 195.95,201.12 193.37,200.68C194.52,200.88 195.6,200.45 196.72,200.49C197.935,200.628 199.138,200.855 200.32,201.17C202.563,201.668 204.839,202.002 207.13,202.17C210.48,202.35 214.85,203.29 217.94,201.54C220.52,200.08 219.24,199.24 218.24,197.29C217.11,195.1 217.45,192.31 217.09,189.91Z" style="fill:rgb(21,47,67);fill-rule:nonzero;"/>
                <path d="M205.22,147.54C202.54,146.08 199.03,148.59 197.82,150.79C196.02,154.1 197.29,159.43 197.82,163.1C198.24,166.28 199.04,169.55 198.16,172.75C197.577,174.39 196.91,175.999 196.16,177.57C195.31,179.78 196.46,179.7 198.62,179.69C202.48,179.69 206.21,179.3 210,179.11C211.2,179.05 213,179.42 214.05,178.93C215.61,178.23 215.05,177.69 214.62,176.03C213.31,171.03 211.41,168.26 212.74,162.91C213.28,160.76 214.15,159.7 213.04,157.75C211.904,155.899 210.602,154.155 209.15,152.54C208.15,151.31 206.8,148.54 205.54,147.69C205.439,147.629 205.331,147.579 205.22,147.54Z" style="fill:rgb(254,165,0);fill-rule:nonzero;"/>
                <path d="M219.89,160.88C215.89,164.72 212.85,167.687 210.77,169.78C210.08,170.5 209.52,171.06 209.08,171.47C208.527,171.966 207.927,172.408 207.29,172.79C206.624,173.234 205.876,173.54 205.09,173.69C204.303,173.807 203.501,173.766 202.73,173.57C202.001,173.418 201.288,173.197 200.6,172.91C200.05,172.67 199.34,172.32 198.45,171.91C196.35,170.857 192.51,169.057 186.93,166.51C186.074,166.126 185.268,165.639 184.53,165.06L187.32,181.52C187.455,182.405 187.951,183.195 188.69,183.7C189.412,184.228 190.32,184.438 191.2,184.28L221.73,179.11C223.543,178.791 224.78,177.047 224.48,175.23L221.69,158.76C221.193,159.549 220.602,160.274 219.93,160.92L219.89,160.88Z" style="fill:rgb(72,128,74);fill-rule:nonzero;"/>
                <path d="M187.25,168.6C192.83,171.153 196.67,172.953 198.77,174C199.66,174.45 200.37,174.8 200.92,175C201.608,175.287 202.321,175.508 203.05,175.66C203.821,175.856 204.623,175.897 205.41,175.78L205.46,175.78C206.242,175.627 206.986,175.321 207.65,174.88C208.287,174.498 208.887,174.056 209.44,173.56C209.88,173.15 210.44,172.56 211.13,171.87C213.19,169.77 216.23,166.803 220.25,162.97C220.88,162.365 221.443,161.695 221.93,160.97C221.94,160.635 221.917,160.3 221.86,159.97C221.725,159.083 221.224,158.291 220.48,157.79C219.762,157.262 218.857,157.052 217.98,157.21L187.46,162.38C186.506,162.483 185.657,163.038 185.18,163.87C184.723,164.746 184.582,165.752 184.78,166.72C184.807,166.88 184.847,167.037 184.9,167.19C185.623,167.754 186.412,168.227 187.25,168.6Z" style="fill:rgb(51,51,51);fill-opacity:0.15;fill-rule:nonzero;"/>
                <path d="M186.9,166.51C192.48,169.063 196.32,170.867 198.42,171.92C199.3,172.37 200.02,172.71 200.56,172.92C201.248,173.208 201.961,173.432 202.69,173.59C203.464,173.786 204.27,173.826 205.06,173.71C205.844,173.558 206.591,173.256 207.26,172.82C207.896,172.432 208.495,171.987 209.05,171.49C209.48,171.08 210.05,170.49 210.74,169.81C212.8,167.71 215.837,164.74 219.85,160.9C220.488,160.3 221.055,159.629 221.54,158.9C221.55,158.565 221.527,158.23 221.47,157.9C221.147,156.089 219.406,154.855 217.59,155.15L187.06,160.31C186.108,160.418 185.263,160.977 184.79,161.81C184.243,162.83 184.142,164.033 184.51,165.13C185.25,165.683 186.052,166.146 186.9,166.51Z" style="fill:rgb(76,175,80);fill-rule:nonzero;"/>
                <path d="M202.68,148.18C200.52,147.79 199.23,149.53 197.42,153.33C195.61,157.13 191.71,165.49 191.78,166.62C191.85,167.55 194.01,168.9 194.62,169.43C196.55,171.08 198.52,172.69 200.41,174.38C202.211,175.838 203.842,177.495 205.27,179.32C206.41,180.94 207.11,184.96 209.5,182.15C210.83,180.59 204.32,173.24 202.96,171.91C200.8,169.8 197.24,165.37 197.24,165.37C197.24,165.37 200.77,159.51 202.55,156.46C204.33,153.41 204.55,148.52 202.68,148.18Z" style="fill:rgb(173,112,77);fill-rule:nonzero;"/>
                <path d="M202.68,148.18C200.52,147.79 199.23,149.53 197.42,153.33C195.61,157.13 191.71,165.49 191.78,166.62C191.85,167.55 194.01,168.9 194.62,169.43C198.06,172.43 201.45,175.01 203.62,179.08C204.89,178.08 207.37,176.03 207.37,176.03L198.56,165.8C199.675,162.598 201.012,159.477 202.56,156.46C204.32,153.4 204.55,148.52 202.68,148.18Z" style="fill:rgb(221,149,14);fill-rule:nonzero;"/>
                <path d="M202.15,144.4C200.51,142.09 199.44,137.82 200.54,135.15C201.64,132.48 203.65,132.05 206.11,133.7C208.57,135.35 212.23,142.7 207.98,143.84C206.9,144.13 205.71,143.76 204.7,144.32L202.15,144.4Z" style="fill:rgb(173,112,77);fill-rule:nonzero;"/>
                <path d="M201.24,131.38C204.32,130.1 208.79,129.96 209.3,133.27C209.72,136.04 205.96,137.07 203.98,136.69L203.98,137.88C203.98,137.88 202.27,137.54 202.65,139.01C202.805,139.56 203.311,139.943 203.882,139.943C204.087,139.943 204.288,139.894 204.47,139.8C203.69,140.08 203.37,141.29 202.2,141.47C200.7,141.7 199.9,140.96 199.2,139.76C197.98,137.76 197.2,135.18 198.68,133.17C199.365,132.363 200.247,131.746 201.24,131.38Z" style="fill:rgb(11,18,56);fill-rule:nonzero;"/>
                <path d="M208.95,137.23L210.89,139.69L209.02,140.59L208.95,137.23Z" style="fill:rgb(173,112,77);fill-rule:nonzero;"/>
                <path d="M205.92,230.38C204.544,231.011 202.948,230.955 201.62,230.23L201.62,231.56L207.87,232.1C207.87,232.1 207.74,231 205.92,230.38Z" style="fill:rgb(61,65,102);fill-rule:nonzero;"/>
                <path d="M190.94,224.54L190.34,225.14L194.18,230.14C194.591,229.45 194.618,228.594 194.25,227.88C192.661,227.388 191.418,226.134 190.94,224.54Z" style="fill:rgb(61,65,102);fill-rule:nonzero;"/>
                <path d="M199.43,134.4C195.75,135.76 192.05,130.47 195.52,127.97C197.013,126.849 199.137,127.045 200.4,128.42C201.85,130.19 201.04,132.29 201.16,134.42L199.43,134.4Z" style="fill:rgb(11,18,56);fill-rule:nonzero;"/>
                <path d="M352.62,40.11C348.62,40.38 345.62,40.63 343.51,40.84C342.8,40.92 342.24,40.97 341.81,40.99C341.275,41.014 340.74,40.987 340.21,40.91C339.641,40.843 339.091,40.667 338.59,40.39C338.096,40.093 337.667,39.698 337.33,39.23C337.004,38.81 336.716,38.362 336.47,37.89C336.28,37.51 336.04,36.99 335.75,36.34C335.083,34.8 333.793,32.043 331.88,28.07C331.583,27.466 331.362,26.828 331.22,26.17L325.22,36.53C324.894,37.082 324.807,37.743 324.98,38.36C325.13,38.985 325.537,39.519 326.1,39.83L345.27,51C345.822,51.326 346.483,51.413 347.1,51.24C347.725,51.09 348.259,50.683 348.57,50.12L354.57,39.76C353.922,39.969 353.25,40.097 352.57,40.14L352.62,40.11Z" style="fill:rgb(72,128,74);fill-rule:nonzero;"/>
                <path d="M331.08,29.4C332.993,33.4 334.287,36.157 334.96,37.67C335.24,38.32 335.48,38.84 335.67,39.22C335.916,39.694 336.207,40.143 336.54,40.56C336.873,41.028 337.299,41.422 337.79,41.72C338.292,41.995 338.842,42.172 339.41,42.24C339.94,42.317 340.475,42.344 341.01,42.32C341.44,42.32 342.01,42.25 342.71,42.17C344.81,41.96 347.85,41.71 351.82,41.44C352.451,41.394 353.075,41.276 353.68,41.09C353.843,40.909 353.987,40.711 354.11,40.5C354.441,39.947 354.528,39.28 354.35,38.66C354.19,38.045 353.79,37.519 353.24,37.2L334.05,26.07C333.477,25.687 332.754,25.605 332.11,25.85C331.457,26.117 330.919,26.606 330.59,27.23C330.53,27.332 330.48,27.439 330.44,27.55C330.577,28.191 330.792,28.812 331.08,29.4Z" style="fill:rgb(51,51,51);fill-opacity:0.15;fill-rule:nonzero;"/>
                <path d="M331.85,28.09C333.75,32.09 335.04,34.847 335.72,36.36C336,37.01 336.24,37.53 336.43,37.91C336.678,38.382 336.97,38.831 337.3,39.25C337.636,39.713 338.061,40.104 338.55,40.4C339.049,40.679 339.601,40.853 340.17,40.91C340.696,40.994 341.228,41.025 341.76,41C342.193,41 342.763,40.95 343.47,40.85C345.56,40.64 348.6,40.39 352.57,40.12C353.204,40.073 353.832,39.955 354.44,39.77C354.598,39.586 354.738,39.389 354.86,39.18C355.196,38.628 355.283,37.959 355.1,37.34C354.943,36.731 354.546,36.212 354,35.9L334.81,24.75C334.236,24.372 333.514,24.29 332.87,24.53C332.219,24.805 331.682,25.296 331.35,25.92C331.29,26.018 331.24,26.122 331.2,26.23C331.334,26.876 331.552,27.501 331.85,28.09Z" style="fill:rgb(76,175,80);fill-rule:nonzero;"/>
                <path d="M314.68,185.85C314.68,186.31 309.81,186.69 303.8,186.69C297.79,186.69 292.93,186.31 292.93,185.85C292.93,185.604 294.32,185.381 296.53,185.227C298.456,185.092 301.006,185.01 303.8,185.01C309.8,185.01 314.68,185.39 314.68,185.85Z" style="fill:rgb(254,165,0);fill-rule:nonzero;"/>
                <path d="M297.4,174.1C297.4,180.63 300.13,185.92 303.5,185.92C306.87,185.92 309.59,180.63 309.59,174.1L297.4,174.1Z" style="fill:rgb(21,47,67);fill-rule:nonzero;"/>
                <path d="M304.7,175C306.54,174 310.12,172.92 310.86,170.45C312.06,166.45 307.32,167.34 305.33,168.25C306.45,167.17 311.24,164.91 310.11,162.82C308.98,160.73 305.41,164.1 305.63,165.92C307.04,163.04 307.92,156.02 305.97,153.18C304.22,150.66 302.46,152.82 302.11,155.07C301.691,158.024 302.176,161.036 303.5,163.71C302.61,162.35 300.69,159.27 298.71,160.71C298.98,163.41 301.81,165.98 302.98,168.32C301.73,167.45 297.74,166.32 297.92,168.94C298.08,171.26 302.7,171.94 303.57,173.46L304.7,175Z" style="fill:rgb(72,128,74);fill-rule:nonzero;"/>
                <path d="M304.14,174.2C304.48,172.76 304.74,170.04 305.87,168.93C307.58,167.25 307.41,169.79 306.66,170.84C308.43,169.37 311.12,165.13 313.36,164.66C316.71,163.96 311.84,168.54 311.3,169.27C312.71,169.13 317.7,166.86 317.86,169.12C318.04,171.67 312.02,171.97 310.4,172.55C311.45,173.17 312.65,174.14 312.4,175.48C310.24,176.26 309.3,175.16 307.54,174.36C307.031,175.041 306.228,175.442 305.378,175.442C304.628,175.442 303.911,175.13 303.4,174.58L304.14,174.2Z" style="fill:rgb(149,43,35);fill-rule:nonzero;"/>
                <path d="M304.7,175.33C304.33,174.81 301.59,166.25 300.7,170.01C299.76,168.19 296.84,161.93 294.21,164.8C291.58,167.67 295.43,171.33 298.21,171.56C296.97,172.45 295.21,174.01 297.53,174.76C299.15,175.28 301.36,174.23 302.98,174.2L304.7,175.33Z" style="fill:rgb(221,149,14);fill-rule:nonzero;"/>
            </g>
        </g>
    </g>
</svg>
