<?xml version="1.0" encoding="UTF-8" standalone="no"?>
<!DOCTYPE svg PUBLIC "-//W3C//DTD SVG 1.1//EN" "http://www.w3.org/Graphics/SVG/1.1/DTD/svg11.dtd">
<svg width="100%" height="100%" viewBox="0 0 4551 5535" version="1.1" xmlns="http://www.w3.org/2000/svg" xmlns:xlink="http://www.w3.org/1999/xlink" xml:space="preserve" xmlns:serif="http://www.serif.com/" style="fill-rule:evenodd;clip-rule:evenodd;stroke-linejoin:round;stroke-miterlimit:2;">
    <g transform="matrix(1,0,0,1,-391.887,-6309.12)">
        <g transform="matrix(4.16667,0,0,4.16667,-7244.73,-1886.75)">
            <g transform="matrix(0.602918,0,0,0.602918,1265.62,1385.87)">
                <clipPath id="_clip1">
                    <path d="M1034.45,1960.43C1254.62,2165.2 1514.82,2456.87 1709.27,2557.44C1734.47,2570.47 1764.73,2568.96 1788.4,2553.34C1978.1,2428.15 2388.03,2060.11 2761.71,1745.14L2761.71,935.96L985.884,935.96L1034.45,1960.43Z"/>
                </clipPath>
                <g clip-path="url(#_clip1)">
                    <path d="M1165.29,964.034C1427.71,983.29 2020.08,991.175 2546.67,1015.67C2571.4,1016.82 2594.42,1058.99 2595.05,1083.28L2613.79,1796.36L2615.93,1874.43L2648.13,3102.56C2648.85,3129.91 2626.95,3152.68 2599.08,3153.52C2371.14,3160.41 1432.49,3185.42 1099.15,3141.75C1078.86,3139.1 1063.88,3121.86 1064.32,3101.77L1110.01,1009.13C1110.63,980.706 1136.41,961.915 1165.29,964.034Z" style="fill:rgb(250,250,250);fill-rule:nonzero;"/>
                    <g transform="matrix(2.70457,0,0,1.68139,-1861.2,-2526.7)">
                        <path d="M1650.77,2200.31C1652,2143.82 1644.51,2102.63 1606.44,2101.65L1140.72,2076C1111.85,2076 1097,2099.43 1097,2128.3L1088.41,2968.71C1088.41,2997.58 1120.43,3022 1149.3,3022L1586.82,3021.01C1615.69,3021.01 1648.32,3000.54 1648.32,2971.67L1650.77,2200.31Z" style="fill:rgb(250,250,250);"/>
                    </g>
                    <path d="M1227.5,1052.89C1455.11,1063.26 2021.04,1072.19 2489.05,1089.29C2527.84,1090.71 2525.28,1163.59 2525.84,1186.39L2571.73,3058.82C2572.36,3084.5 2552.46,3105.88 2527.16,3106.7C2320.24,3113.35 1468.14,3137.64 1165.59,3096.94C1147.17,3094.46 1133.59,3078.29 1134.01,3059.44L1177.27,1095.27C1177.86,1068.59 1201.24,1051.7 1227.5,1052.89Z" style="fill:rgb(0,48,73);fill-rule:nonzero;"/>
                    <path d="M1767.56,1693.04C1767.56,1756.76 1793.14,1789.27 1844.06,1790.56C1870.57,1791.23 1890.68,1782.23 1904.45,1763.58C1918.19,1744.97 1926.52,1714.36 1929.44,1671.72L1935.12,1572.9C1920.24,1569.02 1903.42,1566.69 1884.67,1565.94C1847.89,1564.46 1819.16,1575.04 1798.56,1597.73C1777.9,1620.49 1767.56,1652.27 1767.56,1693.04ZM2212,1652.12C2212,1694.34 2205.53,1732.77 2192.59,1767.47C2179.62,1802.22 2161.26,1829.34 2137.46,1848.82C2113.59,1868.37 2085.78,1877.85 2054,1877.22C2032.73,1876.79 2013.86,1871.15 1997.4,1860.25C1980.9,1849.34 1969,1835.15 1961.75,1817.69L1954.78,1817.52C1923.31,1855.33 1883.05,1873.81 1833.87,1872.83C1781.4,1871.79 1739.79,1854.85 1709.22,1821.92C1678.53,1788.87 1663.13,1744.17 1663.13,1687.92C1663.13,1623.77 1683.34,1572.87 1723.62,1535.38C1763.68,1498.09 1815.68,1480.98 1879.38,1483.89C1904.6,1485.04 1932.28,1488.77 1962.4,1495.06C1992.41,1501.32 2017.03,1508.29 2036.33,1515.97L2026.4,1733.28C2026.4,1774.55 2037.33,1795.46 2059.16,1796.01C2077.48,1796.47 2092.06,1783.03 2102.9,1755.7C2113.73,1728.41 2119.13,1692.5 2119.13,1647.95C2119.13,1600.45 2109.6,1558.09 2090.49,1520.79C2071.33,1483.4 2044.3,1454.21 2009.31,1433.2C1974.16,1412.11 1933.81,1400.35 1888.19,1398.01C1828.7,1394.96 1776.64,1404.81 1732.16,1427.68C1687.41,1450.7 1652.93,1485.5 1628.84,1532.1C1604.68,1578.86 1592.57,1633.6 1592.57,1696.21C1592.57,1780.51 1615.02,1845.67 1659.73,1891.48C1704.19,1937.04 1768.15,1960.3 1851.14,1961.47C1882.32,1961.91 1916.44,1958.88 1953.47,1952.4C1990.31,1945.96 2026.4,1936.33 2061.74,1923.57L2061.74,2008.87C2000.14,2035.24 1931.19,2048.19 1854.67,2047.54C1741.88,2046.59 1652.77,2015.41 1588.22,1953.64C1523.12,1891.34 1490.37,1805.27 1490.37,1695.81C1490.37,1619.87 1507.1,1551.59 1540.49,1491.18C1573.72,1431.03 1620.79,1385.13 1681.46,1353.46C1741.65,1322.05 1810.35,1308.64 1887.31,1313.02C1951.57,1316.68 2008.51,1333.3 2058.3,1362.75C2107.75,1392.01 2145.68,1431.7 2172.28,1481.82C2198.78,1531.78 2212,1588.5 2212,1652.12Z" style="fill:rgb(254,165,0);fill-rule:nonzero;stroke:rgb(0,48,73);stroke-width:0.4px;"/>
                </g>
            </g>
            <g transform="matrix(1,0,0,1,-39,-85.9546)">
                <path d="M1904,2632.13L1988.33,2554.64" style="fill:none;stroke:rgb(250,250,250);stroke-width:24px;stroke-linecap:round;stroke-miterlimit:1.5;"/>
            </g>
            <g transform="matrix(1,0,0,1,-39,-85.9546)">
                <path d="M2928,2566L2855.17,2489" style="fill:none;stroke:rgb(250,250,250);stroke-width:24px;stroke-linecap:round;stroke-miterlimit:1.5;"/>
            </g>
            <g transform="matrix(0.602918,0,0,0.602918,1259.74,1381.61)">
                <path d="M2590.99,3103.61L1062.48,3103.61C1045.49,3103.61 1029.38,3099.82 1014.96,3093.03C987.509,3080.11 966.174,3056.35 956.47,3027.27C952.759,3016.14 950.749,3004.24 950.749,2991.88L950.749,1996.58C948.937,1959.56 975.973,1931.08 999.153,1911.21C1414.96,2258.65 1578.11,2387.78 1796.41,2552.09C2234.82,2202.91 2271.01,2178.67 2709.23,1803.02C2745.43,1839.53 2763.51,1878.05 2761.54,1914.17L2702.56,2997.95C2702.14,3005.65 2700.95,3013.13 2699.06,3020.33C2690.58,3052.67 2668.04,3079.14 2638.5,3093.03C2624.06,3099.82 2607.95,3103.61 2590.99,3103.61Z" style="fill:rgb(250,250,250);stroke:rgb(250,250,250);stroke-width:0.4px;"/>
            </g>
        </g>
    </g>
</svg>
