<?xml version="1.0" encoding="UTF-8" standalone="no"?>
<!DOCTYPE svg PUBLIC "-//W3C//DTD SVG 1.1//EN" "http://www.w3.org/Graphics/SVG/1.1/DTD/svg11.dtd">
<svg width="100%" height="100%" viewBox="0 0 1234 1131" version="1.1" xmlns="http://www.w3.org/2000/svg" xmlns:xlink="http://www.w3.org/1999/xlink" xml:space="preserve" xmlns:serif="http://www.serif.com/" style="fill-rule:evenodd;clip-rule:evenodd;stroke-linejoin:round;stroke-miterlimit:2;">
    <g transform="matrix(1,0,0,1,-6.94705,-2125.75)">
        <g transform="matrix(5.68839,0,0,12.7295,-1679.83,780.551)">
            <path d="M386.53,180.79C386.53,183.01 366.38,184.79 341.53,184.79C316.68,184.79 296.53,182.98 296.53,180.79C296.53,178.6 316.69,176.79 341.53,176.79C366.37,176.79 386.53,178.57 386.53,180.79Z" style="fill:rgb(254,165,0);fill-rule:nonzero;"/>
        </g>
        <g transform="matrix(5.68839,0,0,8.84853,-1326.06,1620.72)">
            <path d="M386.53,180.79C386.53,183.01 366.38,184.79 341.53,184.79C316.68,184.79 296.53,182.98 296.53,180.79C296.53,178.6 316.69,176.79 341.53,176.79C366.37,176.79 386.53,178.57 386.53,180.79Z" style="fill:rgb(254,165,0);fill-rule:nonzero;"/>
        </g>
        <g transform="matrix(10.898,0,0,10.898,-2456.7,1060.56)">
            <path d="M261.91,125.61C262.31,123.88 266.53,119.84 262.75,119.18C261.06,118.88 261.75,120.99 261.39,122.18C261.03,123.37 260.12,124.5 261.48,125.52L261.91,125.61Z" style="fill:rgb(245,178,156);fill-rule:nonzero;"/>
        </g>
        <g transform="matrix(10.898,0,0,10.898,-2456.7,1060.56)">
            <path d="M262.7,123.8C262.7,123.8 259.33,131.8 257.65,133.27C255.97,134.74 253.02,136.46 250.56,138.16C250.36,136.53 249.56,135.83 248.51,134.62C250.85,132.92 253.36,131.07 255.07,129.99C256.78,128.91 257.76,127.3 258.79,126.21C259.702,125.128 260.462,123.927 261.05,122.64C261.627,122.986 262.179,123.374 262.7,123.8Z" style="fill:rgb(254,165,0);fill-rule:nonzero;"/>
        </g>
        <g transform="matrix(10.898,0,0,10.898,-2456.7,1060.56)">
            <path d="M252.33,183C252.33,183 248.24,185.54 249.33,186.91C250.34,188.16 252.88,185.47 252.33,183Z" style="fill:rgb(21,47,67);fill-rule:nonzero;"/>
        </g>
        <g transform="matrix(10.898,0,0,10.898,-2456.7,1060.56)">
            <path d="M252.49,130.37C252.49,130.37 253.08,132.98 252.12,134.6C252.12,134.6 255.6,134.79 256.69,133.75L255.69,131.41C255.69,131.41 257.12,131.88 257.57,131.16C258.02,130.44 258.05,127 257.13,125.26C256.21,123.52 253.13,122.18 251.89,125.12C251.152,126.852 251.381,128.85 252.49,130.37Z" style="fill:rgb(245,178,156);fill-rule:nonzero;"/>
        </g>
        <g transform="matrix(10.898,0,0,10.898,-2456.7,1060.56)">
            <path d="M258.78,134.36C258.486,133.684 257.901,133.176 257.19,132.98C255.857,132.631 254.475,132.499 253.1,132.59C251.448,132.838 249.885,133.502 248.56,134.52C247.373,136.244 246.926,138.374 247.32,140.43C248.06,143.69 248.78,145.5 248.62,146.64C248.46,147.78 248.34,151.01 247.82,152.24C247.82,152.24 259.35,153.31 257.65,150.03C255.95,146.75 258.18,145.53 259.21,141.57C259.89,139.315 259.799,136.897 258.95,134.7C258.899,134.584 258.843,134.47 258.78,134.36Z" style="fill:rgb(254,165,0);fill-rule:nonzero;"/>
        </g>
        <g transform="matrix(10.898,0,0,10.898,-2456.7,1060.56)">
            <path d="M292.14,103.31C288.353,107.03 285.487,109.903 283.54,111.93C282.89,112.63 282.35,113.17 281.94,113.56C281.417,114.043 280.851,114.479 280.25,114.86C279.615,115.282 278.906,115.581 278.16,115.74C277.406,115.866 276.634,115.839 275.89,115.66C275.207,115.516 274.537,115.312 273.89,115.05C273.36,114.82 272.68,114.5 271.82,114.05C269.82,113.07 266.127,111.403 260.74,109.05C259.916,108.699 259.14,108.246 258.43,107.7L261.3,123.41C261.439,124.251 261.921,124.997 262.63,125.47C263.317,125.957 264.171,126.148 265,126L294.13,120.68C294.973,120.541 295.721,120.055 296.19,119.34C296.688,118.647 296.88,117.778 296.72,116.94L293.85,101.23C293.379,101.988 292.818,102.686 292.18,103.31L292.14,103.31Z" style="fill:rgb(72,128,74);fill-rule:nonzero;"/>
        </g>
        <g transform="matrix(10.898,0,0,10.898,-2456.7,1060.56)">
            <path d="M261,111.09C266.373,113.457 270.067,115.123 272.08,116.09C272.94,116.51 273.63,116.843 274.15,117.09C274.796,117.356 275.465,117.561 276.15,117.7C276.894,117.877 277.665,117.907 278.42,117.79C279.167,117.635 279.877,117.336 280.51,116.91C281.11,116.531 281.676,116.099 282.2,115.62C282.61,115.22 283.15,114.68 283.8,113.99C285.74,111.95 288.607,109.073 292.4,105.36C293.008,104.759 293.541,104.087 293.99,103.36C294.001,103.025 293.974,102.689 293.91,102.36C293.593,100.625 291.906,99.456 290.17,99.77L261.04,105.08C260.132,105.196 259.332,105.739 258.89,106.54C258.453,107.376 258.326,108.339 258.53,109.26C258.564,109.413 258.607,109.563 258.66,109.71C259.377,110.269 260.164,110.732 261,111.09Z" style="fill:rgb(51,51,51);fill-opacity:0.15;fill-rule:nonzero;"/>
        </g>
        <g transform="matrix(10.898,0,0,10.898,-2456.7,1060.56)">
            <path d="M260.67,109.1C266.043,111.473 269.737,113.14 271.75,114.1C272.603,114.513 273.293,114.847 273.82,115.1C274.467,115.364 275.136,115.568 275.82,115.71C276.564,115.887 277.335,115.917 278.09,115.8C278.838,115.647 279.548,115.348 280.18,114.92C280.783,114.541 281.352,114.109 281.88,113.63C282.29,113.23 282.82,112.69 283.47,111.99C285.423,109.99 288.293,107.117 292.08,103.37C292.685,102.766 293.218,102.095 293.67,101.37C293.674,101.035 293.648,100.7 293.59,100.37C293.258,98.645 291.581,97.487 289.85,97.79L260.72,103.1C259.81,103.216 259.007,103.758 258.56,104.56C258.127,105.397 258.003,106.361 258.21,107.28C258.239,107.434 258.283,107.584 258.34,107.73C259.055,108.284 259.838,108.745 260.67,109.1Z" style="fill:rgb(76,175,80);fill-rule:nonzero;"/>
        </g>
        <g transform="matrix(10.898,0,0,10.898,-2456.7,1060.56)">
            <path d="M271.35,127.57C272,125.92 276.75,122.57 273.11,121.33C271.48,120.79 271.83,122.98 271.33,124.08C270.83,125.18 269.74,126.19 270.95,127.4L271.35,127.57Z" style="fill:rgb(245,178,156);fill-rule:nonzero;"/>
        </g>
        <g transform="matrix(10.898,0,0,10.898,-2456.7,1060.56)">
            <path d="M272.4,125.89C272.4,125.89 267.91,133.32 266.04,134.55C264.17,135.78 261.04,137.04 258.33,138.37C258.33,136.73 257.65,135.92 256.81,134.57C259.36,133.23 262.11,131.76 263.96,130.94C265.81,130.12 266.96,128.66 268.19,127.72C269.244,126.778 270.166,125.699 270.93,124.51C271.452,124.935 271.943,125.396 272.4,125.89Z" style="fill:rgb(254,165,0);fill-rule:nonzero;"/>
        </g>
        <g transform="matrix(10.898,0,0,10.898,-2456.7,1060.56)">
            <path d="M248,150.11C247.177,153.52 247.222,157.082 248.13,160.47C249.02,164.22 247.43,166.4 247.34,168.81C247.25,171.22 248.75,176.81 248.92,179.81C249.09,182.81 248.04,186.95 248.92,187.05C249.8,187.15 250.05,187.59 250.57,186.91C250.687,185.854 250.717,184.791 250.66,183.73C250.727,180.097 251.001,176.471 251.48,172.87C252.077,169.286 252.312,165.651 252.18,162.02C252.197,159.83 252.374,157.644 252.71,155.48C253.046,153.316 250.19,149.51 248,150.11Z" style="fill:rgb(245,178,156);fill-rule:nonzero;"/>
        </g>
        <g transform="matrix(10.898,0,0,10.898,-2456.7,1060.56)">
            <path d="M248.7,185.59C248.7,185.59 249.17,186.54 250.7,185.48C250.7,185.48 250.89,187.48 249.59,187.39C248.84,187.338 248.477,187.03 248.408,186.616C248.358,186.312 248.467,185.95 248.7,185.59Z" style="fill:rgb(21,47,67);fill-rule:nonzero;"/>
        </g>
        <g transform="matrix(10.898,0,0,10.898,-2456.7,1060.56)">
            <path d="M259.77,184C259.77,184 256.041,185.205 255.856,186.616C255.836,186.769 255.858,186.924 255.93,187.08C256.59,188.51 259.71,186.52 259.77,184Z" style="fill:rgb(21,47,67);fill-rule:nonzero;"/>
        </g>
        <g transform="matrix(10.898,0,0,10.898,-2456.7,1060.56)">
            <path d="M254.12,150.35C253.383,153.781 253.513,157.342 254.5,160.71C255.5,164.44 253.94,166.65 253.91,169.07C253.88,171.49 255.51,177.07 255.76,179.98C256.01,182.89 255.05,187.14 255.93,187.22C256.81,187.3 257.07,187.73 257.57,187.04C257.66,185.982 257.66,184.918 257.57,183.86C257.552,180.229 257.739,176.6 258.13,172.99C258.638,169.39 258.786,165.749 258.57,162.12C258.53,159.93 258.653,157.741 258.94,155.57C259.227,153.399 256.31,149.7 254.12,150.35Z" style="fill:rgb(245,178,156);fill-rule:nonzero;"/>
        </g>
        <g transform="matrix(10.898,0,0,10.898,-2456.7,1060.56)">
            <path d="M255.68,185.8C255.68,185.8 256.17,186.75 257.68,185.65C257.68,185.65 257.92,187.65 256.62,187.58C255.32,187.51 255.15,186.67 255.68,185.8Z" style="fill:rgb(21,47,67);fill-rule:nonzero;"/>
        </g>
        <g transform="matrix(10.898,0,0,10.898,-2456.7,1060.56)">
            <path d="M255.19,122.31C255.42,122.37 255.65,122.44 255.9,122.53C256.33,122.69 256.1,122.66 256.57,122.61C257.04,122.56 257.21,122.31 257.57,122.39C259.66,122.82 257.9,125.21 257.11,125.88C256.32,126.55 255.98,126.41 255.93,127.63C255.956,128.592 256.235,129.531 256.74,130.35C257.74,132.06 258.74,133.67 257.74,135.7C257.26,136.64 256.15,137.97 255.02,137.16C256.59,139.47 253.6,140.76 251.67,140.88C249.74,141 247.82,139.18 248.89,137.31C247.14,137.75 246.95,135.63 247.16,134.41C247.37,133.19 248.27,132.02 248.76,130.79C249.25,129.56 248.86,128.45 248.83,127.14C248.744,125.076 250.054,123.194 252.02,122.56C253.009,122.088 254.139,121.999 255.19,122.31Z" style="fill:rgb(11,18,56);fill-rule:nonzero;"/>
        </g>
        <g transform="matrix(10.898,0,0,10.898,-2456.7,1060.56)">
            <path d="M259.23,160.84C258.53,164.03 258.78,167.18 258.59,170.42C255.07,171.69 250.92,170.42 247.36,170.42C247.71,164.51 246.01,158.5 246.36,152.49C246.44,150.9 248.55,147.69 248.55,147.69C249.81,148.034 251.099,148.265 252.4,148.38C254.005,148.419 255.61,148.325 257.2,148.1C258.235,150.127 259.104,152.233 259.8,154.4C260.069,156.563 259.875,158.758 259.23,160.84Z" style="fill:rgb(21,47,67);fill-rule:nonzero;"/>
        </g>
        <g transform="matrix(10.898,0,0,10.898,-2671.25,1210.56)">
            <path d="M357,97.17C353.193,98.783 350.29,100.05 348.29,100.97C347.62,101.29 347.08,101.53 346.67,101.7C346.152,101.9 345.616,102.051 345.07,102.15C344.485,102.263 343.885,102.263 343.3,102.15C342.719,102.022 342.168,101.781 341.68,101.44C341.213,101.148 340.775,100.813 340.37,100.44C340.06,100.13 339.65,99.7 339.15,99.16C337.957,97.867 335.753,95.593 332.54,92.34C332.043,91.849 331.61,91.298 331.25,90.7L328.85,102.92C328.819,103.079 328.803,103.24 328.803,103.401C328.803,104.603 329.669,105.642 330.85,105.86L353.5,110.32C353.657,110.35 353.816,110.365 353.975,110.365C355.179,110.365 356.223,109.502 356.45,108.32L358.85,96.1C358.291,96.502 357.687,96.838 357.05,97.1L357,97.17Z" style="fill:rgb(72,128,74);fill-rule:nonzero;"/>
            <path d="M332.16,93.93C335.38,97.19 337.583,99.463 338.77,100.75C339.27,101.29 339.68,101.75 339.99,102.03C340.395,102.403 340.833,102.738 341.3,103.03C341.788,103.371 342.339,103.612 342.92,103.74C343.505,103.853 344.105,103.853 344.69,103.74C345.236,103.641 345.772,103.49 346.29,103.29C346.7,103.12 347.24,102.88 347.91,102.56C349.91,101.64 352.813,100.373 356.62,98.76C357.226,98.492 357.799,98.156 358.33,97.76C358.427,97.525 358.501,97.28 358.55,97.03C358.695,96.374 358.553,95.685 358.16,95.14C357.797,94.585 357.222,94.201 356.57,94.08L334,89.64C333.3,89.462 332.556,89.629 332,90.09C331.459,90.577 331.105,91.239 331,91.96C330.985,92.083 330.985,92.207 331,92.33C331.321,92.908 331.711,93.445 332.16,93.93Z" style="fill:rgb(3,70,6);fill-opacity:0.15;fill-rule:nonzero;"/>
            <path d="M332.47,92.38C335.69,95.64 337.89,97.913 339.07,99.2C339.57,99.74 339.98,100.17 340.3,100.49C340.704,100.865 341.142,101.2 341.61,101.49C342.096,101.834 342.647,102.076 343.23,102.2C343.811,102.319 344.409,102.319 344.99,102.2C345.537,102.102 346.072,101.951 346.59,101.75C347.01,101.58 347.59,101.34 348.22,101.02C350.22,100.1 353.12,98.833 356.92,97.22C357.53,96.954 358.107,96.618 358.64,96.22C358.733,95.983 358.807,95.739 358.86,95.49C358.894,95.323 358.911,95.153 358.911,94.983C358.911,93.773 358.047,92.723 356.86,92.49L334.25,88.1C333.552,87.912 332.805,88.077 332.25,88.54C331.712,89.03 331.359,89.691 331.25,90.41L331.25,90.78C331.591,91.361 332,91.898 332.47,92.38Z" style="fill:rgb(76,175,80);fill-rule:nonzero;"/>
        </g>
        <g transform="matrix(10.898,0,0,10.898,-2456.7,1060.56)">
            <path d="M294.7,140.57C294.56,140.405 294.445,140.219 294.36,140.02C293.76,138.77 295.26,137.3 295.94,136.46C296.698,135.529 297.32,134.495 297.79,133.39C298.03,132.86 298.28,131.48 298.79,131.22C299.07,131.47 298.5,133.28 299.38,132.15C300.05,131.29 301.27,129.72 301.62,129.83C301.97,129.94 300.71,131.24 300.89,131.51C301.07,131.78 302.57,130.02 302.77,130.23C302.97,130.44 301.44,131.84 301.62,132.06C301.92,132.43 302.74,131.11 303.01,131.32C303.28,131.53 302.25,132.32 302.01,132.87C302.52,133.06 303.24,131.87 303.32,132.48C303.4,133.09 301.51,133.83 300.95,134.33C299.924,135.255 299.126,136.405 298.62,137.69C298.21,138.74 296.08,142.18 294.7,140.57Z" style="fill:rgb(245,178,156);fill-rule:nonzero;"/>
        </g>
        <g transform="matrix(10.898,0,0,10.898,-2456.7,1060.56)">
            <path d="M268.68,162.05C268.425,163.288 267.903,164.455 267.15,165.47C267.2,164.89 267.35,165.04 266.85,164.24C266.35,163.44 264.04,167.15 263.4,167.17C262.76,167.19 265.29,162.3 266.65,161.42L268.68,162.05Z" style="fill:rgb(245,178,156);fill-rule:nonzero;"/>
        </g>
        <g transform="matrix(10.898,0,0,10.898,-2456.7,1060.56)">
            <path d="M274.48,143.27C272.37,142.68 269.68,152.11 269.27,153.52C268.43,156.41 266.63,159.35 266.04,162.17C266.931,162.334 267.809,162.558 268.67,162.84C270.16,159.44 271.27,158.14 272.09,155.57C272.792,153.656 273.638,151.797 274.62,150.01L274.48,143.27Z" style="fill:rgb(254,165,0);fill-rule:nonzero;"/>
        </g>
        <g transform="matrix(10.898,0,0,10.898,-2456.7,1060.56)">
            <path d="M278,137.9C279.36,139.5 278,143.27 277.33,145.11C278.459,144.855 279.631,144.855 280.76,145.11C280.91,142.85 280.76,139.73 281.27,138.11L278,137.9Z" style="fill:rgb(245,178,156);fill-rule:nonzero;"/>
        </g>
        <g transform="matrix(10.898,0,0,10.898,-2456.7,1060.56)">
            <path d="M289,199.25C289.92,199.19 294.79,197.91 293,196.85C291.8,196.15 289.31,196.59 288.24,197.35L289,199.25Z" style="fill:rgb(46,48,84);fill-rule:nonzero;"/>
        </g>
        <g transform="matrix(10.898,0,0,10.898,-2456.7,1060.56)">
            <path d="M287.51,191.69C287.062,191.737 286.642,191.935 286.32,192.25C284.66,193.61 286.21,196.4 287.01,197.79C287.81,199.18 291.37,199.65 291.33,197.25C291.33,196.78 289.33,197.16 289.1,197.19C289.67,197.11 289.57,191.6 287.51,191.69Z" style="fill:rgb(245,178,156);fill-rule:nonzero;"/>
        </g>
        <g transform="matrix(10.898,0,0,10.898,-2456.7,1060.56)">
            <path d="M276,200.12C277.52,199.74 280.36,199.49 281.13,197.95C280.138,197.596 279.05,197.613 278.07,198C277.975,196.842 277.818,195.691 277.6,194.55C277.49,193.24 277.41,191.93 277.39,190.62C277.32,187.84 272.67,191.76 276,200.12Z" style="fill:rgb(245,178,156);fill-rule:nonzero;"/>
        </g>
        <g transform="matrix(10.898,0,0,10.898,-2456.7,1060.56)">
            <path d="M284.2,143.5C284.32,143.49 284.44,143.49 284.56,143.5C285.67,143.73 285.98,144.25 285.93,145.38C285.74,149.13 284.72,152.99 284.18,156.68C283.87,158.8 285.27,160.25 284.23,162.15C283.173,163.55 281.584,164.455 279.84,164.65C278.004,164.847 276.165,164.287 274.75,163.1C273.08,161.59 273.31,159.24 273.31,157.18C273.31,153.68 272.63,150.56 273.12,147.05C273.31,145.67 273.12,144.05 274.21,143.05C275.89,141.5 279.02,141.9 281,142.56C281.63,142.77 282.2,143.22 282.85,143.37C283.295,143.458 283.747,143.502 284.2,143.5Z" style="fill:rgb(254,165,0);fill-rule:nonzero;"/>
        </g>
        <g transform="matrix(10.898,0,0,10.898,-2456.7,1060.56)">
            <path d="M284.32,157.5L290.25,196.24L286.04,196.47L278.18,171.55L278.8,196.94L274.59,197.72C274.59,197.72 271.69,179.88 271.79,174.2C271.89,168.52 271.23,160.72 273.53,157.34C273.53,157.34 281.13,159.4 284.32,157.5Z" style="fill:rgb(21,47,67);fill-rule:nonzero;"/>
        </g>
        <g transform="matrix(10.898,0,0,10.898,-2456.7,1060.56)">
            <path d="M278.86,139C279.39,141.54 283.34,140.66 284.02,139.06C284.79,137.311 284.709,135.301 283.8,133.62C283.05,131.18 282.37,130.75 280.58,130.62C280.58,130.62 277.28,131.47 278.86,139Z" style="fill:rgb(245,178,156);fill-rule:nonzero;"/>
        </g>
        <g transform="matrix(10.898,0,0,10.898,-2456.7,1060.56)">
            <path d="M275.64,199.08C276.354,199.049 277.065,198.975 277.77,198.86C278.08,198.79 279.07,198.07 278.26,197.98C278.98,197.37 281.26,197.57 281.98,198.1C282.55,198.51 275.98,200.1 275.98,200.1C275.89,199.78 275.76,199.43 275.64,199.08Z" style="fill:rgb(46,48,84);fill-rule:nonzero;"/>
        </g>
        <g transform="matrix(10.898,0,0,10.898,-2456.7,1060.56)">
            <path d="M282.87,133C282.01,134.71 281.59,140.64 278.63,139.66C276.38,138.92 276.79,133.17 277.79,131.46C278.61,130.05 283.38,129.46 284.29,130.96C285.44,132.84 283.23,132.25 282.87,133Z" style="fill:rgb(11,18,56);fill-rule:nonzero;"/>
        </g>
        <g transform="matrix(10.898,0,0,10.898,-2456.7,1060.56)">
            <path d="M299.52,135.88C299.62,137.42 294.01,143.88 294.01,143.88C294.01,143.88 286.96,148.99 284.18,150.38C284.158,148.426 283.649,146.508 282.7,144.8C285.36,143.41 292.18,140.54 292.18,140.54C292.18,140.54 296.46,135.54 297.4,134.33C297.81,134.58 299.52,135.88 299.52,135.88Z" style="fill:rgb(254,165,0);fill-rule:nonzero;"/>
        </g>
        <g transform="matrix(10.898,0,0,10.898,-2456.7,1060.56)">
            <path d="M291.64,197C290.56,198.33 288.73,198.08 287.28,198C286.65,200.34 289.97,199.16 290.99,198.43L291.64,197Z" style="fill:rgb(46,48,84);fill-rule:nonzero;"/>
        </g>
    </g>
</svg>
