<?xml version="1.0" encoding="UTF-8" standalone="no"?>
<!DOCTYPE svg PUBLIC "-//W3C//DTD SVG 1.1//EN" "http://www.w3.org/Graphics/SVG/1.1/DTD/svg11.dtd">
<svg width="100%" height="100%" viewBox="0 0 1143 1143" version="1.1" xmlns="http://www.w3.org/2000/svg" xmlns:xlink="http://www.w3.org/1999/xlink" xml:space="preserve" xmlns:serif="http://www.serif.com/" style="fill-rule:evenodd;clip-rule:evenodd;stroke-linejoin:round;stroke-miterlimit:2;">
    <g transform="matrix(1,0,0,1,-1289,-2253.76)">
        <g transform="matrix(0.247727,0,0,0.209758,1289,2253.76)">
            <rect x="0" y="0" width="4613" height="5448" style="fill:rgb(0,48,73);"/>
        </g>
        <g transform="matrix(1.20859,0,0,1.20859,-376.936,794.856)">
            <path d="M1767.56,1693.04C1767.56,1756.76 1793.14,1789.27 1844.06,1790.56C1870.57,1791.23 1890.68,1782.23 1904.45,1763.58C1918.19,1744.97 1926.52,1714.36 1929.44,1671.72L1935.12,1572.9C1920.24,1569.02 1903.42,1566.69 1884.67,1565.94C1847.89,1564.46 1819.16,1575.04 1798.56,1597.73C1777.9,1620.49 1767.56,1652.27 1767.56,1693.04ZM2212,1652.12C2212,1694.34 2205.53,1732.77 2192.59,1767.47C2179.62,1802.22 2161.26,1829.34 2137.46,1848.82C2113.59,1868.37 2085.78,1877.85 2054,1877.22C2032.73,1876.79 2013.86,1871.15 1997.4,1860.25C1980.9,1849.34 1969,1835.15 1961.75,1817.69L1954.78,1817.52C1923.31,1855.33 1883.05,1873.81 1833.87,1872.83C1781.4,1871.79 1739.79,1854.85 1709.22,1821.92C1678.53,1788.87 1663.13,1744.17 1663.13,1687.92C1663.13,1623.77 1683.34,1572.87 1723.62,1535.38C1763.68,1498.09 1815.68,1480.98 1879.38,1483.89C1904.6,1485.04 1932.28,1488.77 1962.4,1495.06C1992.41,1501.32 2017.03,1508.29 2036.33,1515.97L2026.4,1733.28C2026.4,1774.55 2037.33,1795.46 2059.16,1796.01C2077.48,1796.47 2092.06,1783.03 2102.9,1755.7C2113.73,1728.41 2119.13,1692.5 2119.13,1647.95C2119.13,1600.45 2109.6,1558.09 2090.49,1520.79C2071.33,1483.4 2044.3,1454.21 2009.31,1433.2C1974.16,1412.11 1933.81,1400.35 1888.19,1398.01C1828.7,1394.96 1776.64,1404.81 1732.16,1427.68C1687.41,1450.7 1652.93,1485.5 1628.84,1532.1C1604.68,1578.86 1592.57,1633.6 1592.57,1696.21C1592.57,1780.51 1615.02,1845.67 1659.73,1891.48C1704.19,1937.04 1768.15,1960.3 1851.14,1961.47C1882.32,1961.91 1916.44,1958.88 1953.47,1952.4C1990.31,1945.96 2026.4,1936.33 2061.74,1923.57L2061.74,2008.87C2000.14,2035.24 1931.19,2048.19 1854.67,2047.54C1741.88,2046.59 1652.77,2015.41 1588.22,1953.64C1523.12,1891.34 1490.37,1805.27 1490.37,1695.81C1490.37,1619.87 1507.1,1551.59 1540.49,1491.18C1573.72,1431.03 1620.79,1385.13 1681.46,1353.46C1741.65,1322.05 1810.35,1308.64 1887.31,1313.02C1951.57,1316.68 2008.51,1333.3 2058.3,1362.75C2107.75,1392.01 2145.68,1431.7 2172.28,1481.82C2198.78,1531.78 2212,1588.5 2212,1652.12Z" style="fill:rgb(255,165,2);fill-rule:nonzero;"/>
        </g>
    </g>
</svg>
